<?xml version="1.0" encoding="UTF-8"?>
<svg width="108px" height="69px" viewBox="0 0 108 69" version="1.1" xmlns="http://www.w3.org/2000/svg" xmlns:xlink="http://www.w3.org/1999/xlink">
    <!-- Generator: Sketch 63.1 (92452) - https://sketch.com -->
    <title>Brand / Vertical / Default / Claro TV</title>
    <desc>Created with Sketch.</desc>
    <g id="Brand-/-Vertical-/-Default-/-Claro-TV" stroke="none" stroke-width="1" fill="none" fill-rule="evenodd">
        <g id="Claro-tv">
            <path d="M103.442492,48.1754514 L100.380051,57.5551086 L97.2892373,48.1754514 L93.2941525,48.1754514 L98.8927627,63.3525943 L101.867339,63.3525943 L107.437576,48.1754514 L103.442492,48.1754514 Z M89.9122881,48.61248 L92.5948983,48.61248 L92.5948983,51.4961371 L89.9122881,51.4961371 L89.9122881,58.7793371 C89.9122881,59.65248 90.3214068,60.1480229 91.2238475,60.1480229 L92.5948983,60.1480229 L92.5948983,63.3525943 L90.5255085,63.3525943 C87.4346949,63.3525943 86.1222203,61.1674514 86.1222203,59.01248 L86.1222203,51.4961371 L84.5186949,51.4961371 L84.5186949,48.61248 L86.1222203,48.61248 L86.1222203,44.12608 L89.9122881,44.12608 L89.9122881,48.61248 Z" id="tv" fill="#000000"></path>
            <path d="M67.8030407,17.4522514 L65.8389051,17.9925943 C64.4706,18.5320229 63.2459898,19.46368 62.2135831,20.8808229 L62.2135831,18.2842514 L57.3636508,18.2376229 L57.3636508,38.62528 L62.4094475,38.62528 L62.4094475,28.8735086 C62.4094475,27.2040229 62.6080576,26.0309943 63.0501254,25.2931657 C63.3896847,24.5123657 64.0267017,23.87328 64.8129051,23.33568 C65.6933797,22.7450514 66.623278,22.4506514 67.606261,22.4506514 L69.1713458,22.5512229 L69.1246678,17.3525943 L67.8030407,17.4522514 Z M28.3134814,38.6243657 L33.4096169,38.6243657 L33.4096169,12.0625371 L28.3134814,12.0625371 L28.3134814,38.6243657 Z M48.5955153,28.2371657 L47.6171085,28.7711086 L45.0690407,29.4083657 C43.9899559,29.5555657 43.1589051,29.8015086 42.6674136,30.0949943 C41.8381932,30.6344229 41.4428034,31.3731657 41.4428034,32.4008229 C41.4428034,33.3306514 41.6917525,33.96608 42.1777525,34.4104229 C42.6674136,34.79808 43.2568373,34.9955657 43.9899559,34.9955657 C45.1669729,34.9955657 46.1948034,34.6517943 47.1759559,33.96608 C48.1040237,33.2803657 48.5955153,32.0543086 48.5955153,30.2933943 L48.5955153,28.2371657 Z M53.9396847,23.6264229 L53.9396847,38.62528 L48.8398881,38.62528 L48.8398881,36.5160229 C47.2711424,37.8883657 45.0690407,38.5749943 42.2784305,38.62528 C40.5595831,38.5749943 39.140939,38.08768 38.111278,37.2035657 C36.937922,36.1256229 36.3512441,34.6517943 36.3988373,32.8451657 C36.3512441,30.24128 37.2793119,28.4309943 39.1885322,27.30368 C40.3188712,26.6627657 41.7860237,26.2257371 43.5973119,25.9770514 L47.518261,25.3443657 C48.2998881,25.0024229 48.6934475,24.4584229 48.6934475,23.7754514 C48.6431085,22.9425371 48.3987356,22.3528229 47.8120576,22.0584229 C47.2253797,21.7146514 46.3924983,21.5162514 45.3161593,21.5683657 C44.0402949,21.5162514 43.1589051,21.8627657 42.6207356,22.5512229 C42.2784305,22.9425371 41.9818881,23.5313371 41.8867017,24.4127086 L36.7896508,24.4127086 C36.937922,22.5512229 37.3790746,21.0773943 38.2595492,19.9519086 C39.6306,18.13888 42.0313119,17.20448 45.4616847,17.2565943 C47.6656169,17.20448 49.6233458,17.6497371 51.3870407,18.5795657 C53.0518881,19.4627657 53.9396847,21.1752229 53.9396847,23.6264229 L53.9396847,23.6264229 Z M13.1257525,17.1112229 C14.6954136,17.1112229 16.1149729,17.5491657 17.486939,18.43328 C18.7133797,19.2680229 19.6927017,20.44288 20.3782271,21.8143086 L25.7178203,21.8143086 C24.9343627,18.9727086 23.4150407,16.6184229 21.1113458,14.8090514 C18.7637186,12.9439086 16.0673797,12.01408 13.1257525,12.0625371 C9.4546678,12.01408 6.41327797,13.28768 3.86795593,15.9327086 C1.27229492,18.5311086 9.15254237e-05,21.6168229 9.15254237e-05,25.2931657 C9.15254237e-05,28.9183086 1.27229492,32.1082514 3.86795593,34.7029943 C6.41327797,37.24928 9.4546678,38.5265371 13.1257525,38.5265371 C16.0673797,38.5265371 18.7637186,37.6424229 21.1113458,35.82848 C23.4150407,33.96608 24.9343627,31.6648229 25.7178203,28.8223086 L20.3782271,28.8223086 C19.6927017,30.1955657 18.7133797,31.3183086 17.486939,32.2024229 C16.1149729,33.0389943 14.6954136,33.4778514 13.1257525,33.4778514 C10.8742271,33.4778514 8.96500678,32.6449371 7.39443051,31.07328 C5.78175254,29.4577371 4.99554915,27.5523657 5.04405763,25.2931657 C4.99554915,23.0403657 5.78175254,21.12768 7.39443051,19.5130514 C8.96500678,17.9432229 10.8742271,17.1112229 13.1257525,17.1112229 L13.1257525,17.1112229 Z M85.8298881,28.0369371 C85.7786339,26.4223086 85.2404644,25.09568 84.2089729,24.0195657 C83.0841254,22.89408 81.7624983,22.3528229 80.1946678,22.4031086 C78.6771763,22.3528229 77.3528034,22.89408 76.2764644,24.0195657 C75.1964644,25.09568 74.6088712,26.4223086 74.6088712,28.0369371 C74.6088712,29.5555657 75.1964644,30.8803657 76.2764644,32.0085943 C77.3528034,33.1386514 78.6771763,33.67168 80.1946678,33.67168 C81.7624983,33.67168 83.0841254,33.1386514 84.1613797,32.0085943 C85.2404644,30.8803657 85.7786339,29.5555657 85.8298881,28.0369371 L85.8298881,28.0369371 Z M87.7381932,20.44288 C89.7956847,22.5512229 90.8253458,25.09568 90.8253458,28.0369371 C90.8253458,30.9781943 89.7956847,33.52448 87.7381932,35.5834514 C85.6321932,37.6936229 83.0841254,38.7679086 80.1946678,38.7679086 C77.3042949,38.7679086 74.8029051,37.6936229 72.7481593,35.5834514 C70.6384983,33.52448 69.6124983,30.9781943 69.6124983,28.0369371 C69.6124983,25.09568 70.6384983,22.5512229 72.7481593,20.44288 C74.8029051,18.33728 77.3042949,17.3041371 80.1946678,17.3041371 C83.0841254,17.3041371 85.6321932,18.33728 87.7381932,20.44288 L87.7381932,20.44288 Z M93.9646678,27.7434514 L107.438125,27.7434514 L107.438125,23.1866514 L93.9646678,23.1866514 L93.9646678,27.7434514 Z M78.5298203,13.1880229 L83.0868712,13.1880229 L83.0868712,0.000365714286 L78.5298203,0.000365714286 L78.5298203,13.1880229 Z M104.009583,5.78596571 L91.7085661,18.0885943 L88.4768034,14.8529371 L100.774159,2.55488 L104.009583,5.78596571 Z" id="Claro" fill="#E3262E"></path>
        </g>
    </g>
</svg>