<?xml version="1.0" encoding="UTF-8"?>
<svg width="108px" height="69px" viewBox="0 0 108 69" version="1.1" xmlns="http://www.w3.org/2000/svg" xmlns:xlink="http://www.w3.org/1999/xlink">
    <!-- Generator: Sketch 63.1 (92452) - https://sketch.com -->
    <title>Brand / Vertical / Default / Claro Movel</title>
    <desc>Created with Sketch.</desc>
    <g id="Brand-/-Vertical-/-Default-/-Claro-Movel" stroke="none" stroke-width="1" fill="none" fill-rule="evenodd">
        <g id="Claro-móvel">
            <path d="M105.980858,60.21184 C105.017095,60.21184 104.63818,59.7455543 104.63818,58.84224 L104.63818,42.67584 L100.849027,42.67584 L100.849027,59.0753829 C100.849027,61.2312686 102.160586,63.4154971 105.279773,63.4154971 L107.437942,63.4154971 L107.437942,60.21184 L105.980858,60.21184 Z M94.4898407,54.4152686 C94.4614678,53.7450971 94.3736034,53.3364114 94.1411288,52.7832686 C93.7320102,51.8808686 92.8863153,51.2106971 91.6031288,51.2106971 C90.3217729,51.2106971 89.476078,51.8808686 89.0669593,52.7832686 C88.8344847,53.3364114 88.7466203,53.7450971 88.7164169,54.4152686 L94.4898407,54.4152686 Z M98.2222475,55.3176686 L98.2222475,57.0072686 L88.7164169,57.0072686 C88.7164169,58.9592686 89.911739,60.3864686 92.0415356,60.3864686 C93.7036373,60.3864686 94.5209593,59.9201829 95.4819763,58.9592686 L97.7865864,61.2020114 C96.2398068,62.7453257 94.7525186,63.5901257 92.0122475,63.5901257 C88.4244508,63.5901257 84.9840102,61.95904 84.9840102,55.8132114 C84.9840102,50.8605257 87.6666203,48.06464 91.6031288,48.06464 C95.8325186,48.06464 98.2222475,51.1521829 98.2222475,55.3176686 L98.2222475,55.3176686 Z M77.4615356,57.6189257 L74.370722,48.2392686 L70.3756373,48.2392686 L75.9742475,63.4154971 L78.9488237,63.4154971 L84.519061,48.2392686 L80.5239763,48.2392686 L77.4615356,57.6189257 Z M66.000722,55.8132114 C66.000722,54.2397257 65.9137729,52.9295543 65.1266542,52.1423543 C64.6891627,51.7053257 64.1061458,51.4721829 63.3464847,51.4721829 C62.5886542,51.4721829 62.0340102,51.7053257 61.5983492,52.1423543 C60.8094,52.9295543 60.7224508,54.2397257 60.7224508,55.8132114 C60.7224508,57.3857829 60.8094,58.7261257 61.5983492,59.5124114 C62.0340102,59.94944 62.5886542,60.1825829 63.3464847,60.1825829 C64.1061458,60.1825829 64.6891627,59.94944 65.1266542,59.5124114 C65.9137729,58.7261257 66.000722,57.3857829 66.000722,55.8132114 L66.000722,55.8132114 Z M68.0710271,49.9288686 C69.442078,51.3560686 69.7926203,53.0749257 69.7926203,55.8132114 C69.7926203,58.5807543 69.442078,60.2986971 68.0710271,61.7258971 C67.1383831,62.7169829 65.5934339,63.5901257 63.3464847,63.5901257 C61.1013661,63.5901257 59.5857051,62.7169829 58.6521458,61.7258971 C57.2810949,60.2986971 56.9323831,58.5807543 56.9323831,55.8132114 C56.9323831,53.0749257 57.2810949,51.3560686 58.6521458,49.9288686 C59.5857051,48.9386971 61.1013661,48.06464 63.3464847,48.06464 C65.5934339,48.06464 67.1383831,48.9386971 68.0710271,49.9288686 L68.0710271,49.9288686 Z M67.6335356,40.8701257 L63.6393661,40.8701257 L61.7731627,45.8218971 L64.3102475,45.8218971 L67.6335356,40.8701257 Z M52.5583831,49.4049829 C53.7829932,50.6282971 54.2204847,52.0554971 54.2204847,53.71584 L54.2204847,63.4154971 L50.4295017,63.4154971 L50.4295017,54.2397257 C50.4295017,52.1716114 49.1170271,51.4721829 47.9226203,51.4721829 C46.7556712,51.4721829 45.3846203,52.1716114 45.3846203,54.1528686 L45.3846203,63.4154971 L41.5945525,63.4154971 L41.5945525,54.2397257 C41.5945525,52.1716114 40.2829932,51.4721829 39.0867559,51.4721829 C37.8905186,51.4721829 36.5505864,52.1716114 36.5505864,54.2397257 L36.5505864,63.4154971 L32.7586881,63.4154971 L32.7586881,48.2392686 L36.462722,48.2392686 L36.462722,49.6381257 C37.4530271,48.6177829 38.8524508,48.06464 40.2527898,48.06464 C41.9450949,48.06464 43.3143153,48.6762971 44.278078,49.9873829 C45.5594339,48.64704 46.9304847,48.06464 48.8259763,48.06464 C50.3434678,48.06464 51.7126881,48.5601829 52.5583831,49.4049829 L52.5583831,49.4049829 Z" id="móvel" fill="#000000"></path>
            <path d="M67.8030407,17.4519771 L65.8389051,17.99232 C64.4706,18.5317486 63.2459898,19.4634057 62.2135831,20.8805486 L62.2135831,18.2839771 L57.3636508,18.2382629 L57.3636508,38.62592 L62.4094475,38.62592 L62.4094475,28.8732343 C62.4094475,27.2046629 62.6080576,26.03072 63.0501254,25.2928914 C63.3896847,24.5120914 64.0267017,23.87392 64.8129051,23.3354057 C65.6933797,22.7447771 66.623278,22.4503771 67.606261,22.4503771 L69.1713458,22.5518629 L69.1246678,17.35232 L67.8030407,17.4519771 Z M28.3134814,38.6240914 L33.4096169,38.6240914 L33.4096169,12.0622629 L28.3134814,12.0622629 L28.3134814,38.6240914 Z M48.5955153,28.2368914 L47.6171085,28.7708343 L45.0690407,29.4090057 C43.9899559,29.5562057 43.1589051,29.8012343 42.6674136,30.09472 C41.8381932,30.6341486 41.4428034,31.3728914 41.4428034,32.4005486 C41.4428034,33.3312914 41.6917525,33.9658057 42.1777525,34.4101486 C42.6674136,34.7978057 43.2568373,34.9952914 43.9899559,34.9952914 C45.1669729,34.9952914 46.1948034,34.65152 47.1759559,33.9658057 C48.1040237,33.2800914 48.5955153,32.0540343 48.5955153,30.29312 L48.5955153,28.2368914 Z M53.9396847,23.6261486 L53.9396847,38.6250057 L48.8398881,38.6250057 L48.8398881,36.5157486 C47.2711424,37.8880914 45.0690407,38.57472 42.2784305,38.6250057 C40.5595831,38.57472 39.140939,38.0874057 38.111278,37.2032914 C36.937922,36.1253486 36.3512441,34.65152 36.3988373,32.8439771 C36.3512441,30.24192 37.2793119,28.43072 39.1885322,27.3034057 C40.3188712,26.6634057 41.7860237,26.2254629 43.5973119,25.9776914 L47.518261,25.3440914 C48.2998881,25.0021486 48.6934475,24.4581486 48.6934475,23.7751771 C48.6431085,22.9422629 48.3987356,22.3525486 47.8120576,22.0590629 C47.2253797,21.7143771 46.3924983,21.5159771 45.3161593,21.5680914 C44.0402949,21.5159771 43.1589051,21.8624914 42.6207356,22.5518629 C42.2784305,22.9422629 41.9818881,23.5319771 41.8867017,24.4133486 L36.7896508,24.4133486 C36.937922,22.5518629 37.3790746,21.07712 38.2595492,19.9516343 C39.6306,18.1386057 42.0313119,17.20512 45.4616847,17.25632 C47.6656169,17.20512 49.6233458,17.6494629 51.3870407,18.5802057 C53.0518881,19.4624914 53.9396847,21.1758629 53.9396847,23.6261486 L53.9396847,23.6261486 Z M13.1257525,17.1109486 C14.6954136,17.1109486 16.1149729,17.5498057 17.486939,18.43392 C18.7133797,19.2677486 19.6927017,20.4426057 20.3782271,21.8140343 L25.7178203,21.8140343 C24.9343627,18.9733486 23.4150407,16.6190629 21.1113458,14.8096914 C18.7637186,12.9445486 16.0673797,12.0138057 13.1257525,12.0622629 C9.4546678,12.0138057 6.41327797,13.2874057 3.86795593,15.9324343 C1.27229492,18.5308343 9.15254237e-05,21.6165486 9.15254237e-05,25.2928914 C9.15254237e-05,28.9180343 1.27229492,32.1079771 3.86795593,34.70272 C6.41327797,37.2490057 9.4546678,38.5262629 13.1257525,38.5262629 C16.0673797,38.5262629 18.7637186,37.6421486 21.1113458,35.8282057 C23.4150407,33.9658057 24.9343627,31.6645486 25.7178203,28.8220343 L20.3782271,28.8220343 C19.6927017,30.1952914 18.7133797,31.3180343 17.486939,32.2021486 C16.1149729,33.03872 14.6954136,33.4784914 13.1257525,33.4784914 C10.8742271,33.4784914 8.96500678,32.6446629 7.39443051,31.0730057 C5.78175254,29.4574629 4.99554915,27.5511771 5.04405763,25.2928914 C4.99554915,23.0410057 5.78175254,21.1274057 7.39443051,19.5127771 C8.96500678,17.9438629 10.8742271,17.1109486 13.1257525,17.1109486 L13.1257525,17.1109486 Z M85.8298881,28.0375771 C85.7786339,26.4220343 85.2404644,25.09632 84.2089729,24.0192914 C83.0841254,22.89472 81.7624983,22.3525486 80.1946678,22.4028343 C78.6771763,22.3525486 77.3528034,22.89472 76.2764644,24.0192914 C75.1964644,25.09632 74.6088712,26.4220343 74.6088712,28.0375771 C74.6088712,29.5562057 75.1964644,30.8800914 76.2764644,32.00832 C77.3528034,33.1383771 78.6771763,33.6714057 80.1946678,33.6714057 C81.7624983,33.6714057 83.0841254,33.1383771 84.1613797,32.00832 C85.2404644,30.8800914 85.7786339,29.5562057 85.8298881,28.0375771 L85.8298881,28.0375771 Z M87.7381932,20.4426057 C89.7956847,22.5518629 90.8253458,25.09632 90.8253458,28.0375771 C90.8253458,30.97792 89.7956847,33.52512 87.7381932,35.5840914 C85.6321932,37.6933486 83.0841254,38.7685486 80.1946678,38.7685486 C77.3042949,38.7685486 74.8029051,37.6933486 72.7481593,35.5840914 C70.6384983,33.52512 69.6124983,30.97792 69.6124983,28.0375771 C69.6124983,25.09632 70.6384983,22.5518629 72.7481593,20.4426057 C74.8029051,18.3370057 77.3042949,17.3038629 80.1946678,17.3038629 C83.0841254,17.3038629 85.6321932,18.3370057 87.7381932,20.4426057 L87.7381932,20.4426057 Z M93.9646678,27.7431771 L107.438125,27.7431771 L107.438125,23.1863771 L93.9646678,23.1863771 L93.9646678,27.7431771 Z M78.5298203,13.1877486 L83.0868712,13.1877486 L83.0868712,9.14285716e-05 L78.5298203,9.14285716e-05 L78.5298203,13.1877486 Z M104.009583,5.78660571 L91.7085661,18.08832 L88.4768034,14.8526629 L100.774159,2.55460571 L104.009583,5.78660571 Z" id="Claro" fill="#E3262E"></path>
        </g>
    </g>
</svg>