<?xml version="1.0" encoding="UTF-8"?>
<svg width="142px" height="84px" viewBox="0 0 142 84" version="1.1" xmlns="http://www.w3.org/2000/svg" xmlns:xlink="http://www.w3.org/1999/xlink">
    <!-- Generator: Sketch 63.1 (92452) - https://sketch.com -->
    <title>Brand / Vertical / Default / Minha Claro Residencial</title>
    <desc>Created with Sketch.</desc>
    <g id="Brand-/-Vertical-/-Default-/-Minha-Claro-Residencial" stroke="none" stroke-width="1" fill="none" fill-rule="evenodd">
        <g id="Minha-Claro-residencial">
            <path d="M140.528771,74.6205205 C139.557187,74.6205205 139.174834,74.15407 139.174834,73.2504365 L139.174834,57.0783238 L135.350377,57.0783238 L135.350377,73.4836618 C135.350377,75.6403093 136.673837,77.8253097 139.821325,77.8253097 L142,77.8253097 L142,74.6205205 L140.528771,74.6205205 Z M128.287923,71.4148167 L125.256803,71.4148167 C123.874235,71.4148167 123.109529,72.0559574 123.109529,73.1342812 C123.109529,74.1833375 123.815128,74.8830132 125.314987,74.8830132 C126.375233,74.8830132 127.051278,74.7952108 127.72917,74.15407 C128.140153,73.775422 128.287923,73.1635487 128.287923,72.2306477 L128.287923,71.4148167 Z M132.113303,67.8304648 L132.113303,77.8253097 L128.376584,77.8253097 L128.376584,76.5146753 C127.346816,77.5344641 126.375233,77.9716471 124.610312,77.9716471 C122.874021,77.9716471 121.608746,77.5344641 120.695346,76.6308306 C119.872455,75.7857321 119.430994,74.5619855 119.430994,73.2220836 C119.430994,70.8029434 121.108177,68.8219007 124.668496,68.8219007 L128.287923,68.8219007 L128.287923,68.06369 C128.287923,66.4027605 127.464108,65.6747319 125.433203,65.6747319 C123.962897,65.6747319 123.285005,66.0241124 122.490744,66.9277459 L120.048855,64.5671406 C121.548714,62.9354785 123.020867,62.469028 125.580048,62.469028 C129.876444,62.469028 132.113303,64.2753804 132.113303,67.8304648 L132.113303,67.8304648 Z M115.075491,56 C113.752031,56 112.663155,57.0490563 112.663155,58.3606053 C112.663155,59.6712397 113.752031,60.7495635 115.075491,60.7495635 C116.399874,60.7495635 117.459196,59.6712397 117.459196,58.3606053 C117.459196,57.0490563 116.399874,56 115.075491,56 L115.075491,56 Z M113.163724,77.8253097 L116.989105,77.8253097 L116.989105,62.6437183 L113.163724,62.6437183 L113.163724,77.8253097 Z M105.866686,65.877775 C106.8669,65.877775 107.543869,66.2280702 108.33813,67.0731687 L110.927788,64.5086056 C109.573851,63.1101688 107.98533,62.469028 105.866686,62.469028 C102.806013,62.469028 99.0101859,64.0714226 99.0101859,70.2203376 C99.0101859,76.3683379 102.806013,78 105.866686,78 C107.98533,78 109.573851,77.3305064 110.927788,75.9320695 L108.33813,73.3967739 C107.543869,74.2409578 106.8669,74.591253 105.866686,74.591253 C104.95421,74.591253 104.248611,74.2702253 103.688935,73.6007317 C103.100628,72.8717885 102.835566,71.8227322 102.835566,70.2203376 C102.835566,68.617943 103.100628,67.5972395 103.688935,66.8692109 C104.248611,66.1988027 104.95421,65.877775 105.866686,65.877775 L105.866686,65.877775 Z M91.2135027,62.469028 C89.8004578,62.469028 88.3883364,62.9940135 87.3881222,64.0430698 L87.3881222,62.6437183 L83.6514034,62.6437183 L83.6514034,77.8253097 L87.4767839,77.8253097 L87.4767839,68.6462958 C87.4767839,66.5774507 88.8297975,65.877775 90.0359653,65.877775 C91.2430566,65.877775 92.5665163,66.5774507 92.5665163,68.6462958 L92.5665163,77.8253097 L96.3918968,77.8253097 L96.3918968,68.122225 C96.3918968,66.4612954 96.0677276,65.0335911 94.832006,63.8098445 C93.9795612,62.964746 92.7438396,62.469028 91.2135027,62.469028 L91.2135027,62.469028 Z M77.0895183,68.8219007 C77.0590408,68.1514925 76.9722263,67.7426623 76.7367188,67.189324 C76.323888,66.2866051 75.4714433,65.6161969 74.1756903,65.6161969 C72.8817845,65.6161969 72.0284162,66.2866051 71.6165089,67.189324 C71.3810015,67.7426623 71.2923398,68.1514925 71.2627859,68.8219007 L77.0895183,68.8219007 Z M80.855791,69.7246196 L80.855791,71.4148167 L71.2627859,71.4148167 C71.2627859,73.3675064 72.4698773,74.7952108 74.618075,74.7952108 C76.2943342,74.7952108 77.1190722,74.3287603 78.0897324,73.3675064 L80.4143299,75.6110418 C78.8553627,77.1549015 77.3545796,78 74.5885211,78 C70.9690942,78 67.4965132,76.3683379 67.4965132,70.2203376 C67.4965132,65.2659017 70.203464,62.469028 74.1756903,62.469028 C78.4425319,62.469028 80.855791,65.5576619 80.855791,69.7246196 L80.855791,69.7246196 Z M60.8773675,70.2203376 C60.8773675,67.7426623 60.5531983,65.877775 58.2581548,65.877775 C55.9631112,65.877775 55.6684959,67.7426623 55.6684959,70.2203376 C55.6684959,72.6970982 55.9631112,74.591253 58.2581548,74.591253 C60.5531983,74.591253 60.8773675,72.6970982 60.8773675,70.2203376 L60.8773675,70.2203376 Z M60.8773675,57.0783238 L64.7018244,57.0783238 L64.7018244,77.8253097 L60.9660291,77.8253097 L60.9660291,76.3976054 C59.9057836,77.5637316 58.7873539,78 57.169279,78 C55.6684959,78 54.2563746,77.4759292 53.4030063,76.6308306 C51.8726694,75.1162385 51.844039,72.4931404 51.844039,70.2203376 C51.844039,67.9475347 51.8726694,65.3537042 53.4030063,63.8381974 C54.2563746,62.9940135 55.6389421,62.469028 57.1397251,62.469028 C58.6996159,62.469028 59.8762297,62.8769435 60.8773675,63.9845348 L60.8773675,57.0783238 Z M47.0470747,56 C45.723615,56 44.6347392,57.0490563 44.6347392,58.3606053 C44.6347392,59.6712397 45.723615,60.7495635 47.0470747,60.7495635 C48.371458,60.7495635 49.4307799,59.6712397 49.4307799,58.3606053 C49.4307799,57.0490563 48.371458,56 47.0470747,56 L47.0470747,56 Z M45.1353081,77.8253097 L48.9606885,77.8253097 L48.9606885,62.6437183 L45.1353081,62.6437183 L45.1353081,77.8253097 Z M38.1033315,68.5886755 L35.6900724,68.3554502 C34.3370588,68.2383803 34.1015513,67.5972395 34.1015513,67.0439012 C34.1015513,66.2866051 34.748966,65.5869294 36.2783794,65.5869294 C37.6027626,65.5869294 38.9566998,65.8201547 39.839622,66.6067182 L42.1928498,64.2461129 C40.7216206,62.8769435 38.7211923,62.469028 36.3374871,62.469028 C33.2186291,62.469028 30.4230167,64.1592251 30.4230167,67.3063939 C30.4230167,70.1041823 32.1297533,71.2986613 34.8958119,71.5602395 L37.3081474,71.7934647 C38.5152387,71.9105346 38.9262224,72.4346055 38.9262224,73.1919016 C38.9262224,74.3287603 37.5436549,74.7659433 36.2201952,74.7659433 C35.0426577,74.7659433 33.3950288,74.591253 32.1297533,73.338239 L29.6287561,75.8149996 C31.5700767,77.7384219 33.7478283,78 36.1610874,78 C39.7795907,78 42.6638648,76.3976054 42.6638648,73.0464788 C42.6638648,70.4828303 41.1335279,68.8795211 38.1033315,68.5886755 L38.1033315,68.5886755 Z M24.5667305,68.8219007 C24.5371766,68.1514925 24.4494385,67.7426623 24.2148546,67.189324 C23.8020238,66.2866051 22.9486555,65.6161969 21.6538261,65.6161969 C20.3599202,65.6161969 19.5065519,66.2866051 19.0946447,67.189324 C18.8591372,67.7426623 18.7704756,68.1514925 18.7409217,68.8219007 L24.5667305,68.8219007 Z M28.3339267,69.7246196 L28.3339267,71.4148167 L18.7409217,71.4148167 C18.7409217,73.3675064 19.9470895,74.7952108 22.0962107,74.7952108 C23.7724699,74.7952108 24.5972079,74.3287603 25.5669446,73.3675064 L27.8924656,75.6110418 C26.3334984,77.1549015 24.8327154,78 22.0657333,78 C18.4463064,78 14.974649,76.3683379 14.974649,70.2203376 C14.974649,65.2659017 17.6815998,62.469028 21.6538261,62.469028 C25.9206676,62.469028 28.3339267,65.5576619 28.3339267,69.7246196 L28.3339267,69.7246196 Z M15.21108,63.8967324 L12.3277295,66.7814085 C11.738499,66.1988027 11.2379302,65.877775 10.2959002,65.877775 C9.11928632,65.877775 7.82538047,66.752141 7.82538047,68.6755633 L7.82538047,77.8253097 L4,77.8253097 L4,62.6437183 L7.73671882,62.6437183 L7.73671882,64.1006901 C8.47279517,63.2263241 9.94310075,62.469028 11.5916532,62.469028 C13.0924362,62.469028 14.1508345,62.8476761 15.21108,63.8967324 L15.21108,63.8967324 Z" id="residencial" fill="#000000"></path>
            <path d="M72.157293,31.1060226 L70.1814919,31.6354733 C68.8064599,32.1640252 67.5763138,33.0773052 66.5371956,34.467001 L66.5371956,31.9213228 L61.6627531,31.8763779 L61.6627531,51.859772 L66.7356063,51.859772 L66.7356063,42.3008942 C66.7356063,40.6649004 66.9349398,39.5152103 67.3788259,38.7915977 C67.719354,38.0257369 68.3616509,37.4001041 69.1516022,36.8724512 C70.036606,36.2935611 70.9714432,36.0050149 71.9588823,36.0050149 L73.532325,36.1047925 L73.4852602,31.0080428 L72.157293,31.1060226 Z M32.4603948,51.8588731 L37.5830813,51.8588731 L37.5830813,25.823201 L32.4603948,25.823201 L32.4603948,51.8588731 Z M52.8477826,41.6779581 L51.8658805,42.2002176 L49.3040759,42.8258504 C48.2197385,42.9705729 47.3845681,43.2105786 46.8908485,43.4982259 C46.0566009,44.0276766 45.6579339,44.7503903 45.6579339,45.7580546 C45.6579339,46.6704357 45.9089464,47.2924729 46.3980518,47.7284383 C46.8908485,48.108672 47.4823891,48.301935 48.2197385,48.301935 C49.4018969,48.301935 50.4364009,47.9639495 51.4219944,47.2924729 C52.3549859,46.6209964 52.8477826,45.4182713 52.8477826,43.6932867 L52.8477826,41.6779581 Z M58.2205588,37.1583006 L58.2205588,51.859772 L53.0951038,51.859772 L53.0951038,49.7923073 C51.5179698,51.1370582 49.3040759,51.8094337 46.4995642,51.859772 C44.7710843,51.8094337 43.3434504,51.3330179 42.3089464,50.4655817 C41.1304794,49.4093769 40.5407844,47.9639495 40.589695,46.19402 C40.5407844,43.6420495 41.473776,41.8676255 43.3932838,40.7628803 C44.5293002,40.1345508 46.003999,39.7048777 47.8247629,39.4621753 L51.7662138,38.8419359 C52.5524737,38.5066471 52.9474494,37.9736008 52.9474494,37.303922 C52.897616,36.487723 52.6502948,35.9097318 52.0615227,35.6211856 C51.4709049,35.284099 50.6348116,35.0899371 49.5523199,35.1402753 C48.2695719,35.0899371 47.3845681,35.4288215 46.841938,36.1047925 C46.4995642,36.487723 46.200564,37.0648153 46.1055114,37.9295548 L40.9809792,37.9295548 C41.1304794,36.1047925 41.5734427,34.6593651 42.4584466,33.5564177 C43.8380928,31.779297 46.2513202,30.8642191 49.6990515,30.9145574 C51.9138682,30.8642191 53.8822866,31.2992856 55.6559856,32.2116667 C57.3281723,33.0773052 58.2205588,34.7555471 58.2205588,37.1583006 L58.2205588,37.1583006 Z M17.1938477,30.7716327 C18.7709818,30.7716327 20.1986157,31.2022047 21.5773391,32.0678431 C22.8102538,32.88584 23.7949244,34.0373279 24.4842861,35.3811799 L29.8506024,35.3811799 C29.0634196,32.5963949 27.5361189,30.2889246 25.2216355,28.5162984 C22.86101,26.6870417 20.150628,25.7755594 17.1938477,25.823201 C13.5034094,25.7755594 10.4460395,27.0241283 7.88608049,29.6165492 C5.27721097,32.1640252 4,35.1879169 4,38.7915977 C4,42.3449402 5.27721097,45.4713062 7.88608049,48.0151866 C10.4460395,50.5105266 13.5034094,51.762691 17.1938477,51.762691 C20.150628,51.762691 22.86101,50.8970526 25.2216355,49.1181341 C27.5361189,47.2924729 29.0634196,45.0371387 29.8506024,42.249657 L24.4842861,42.249657 C23.7949244,43.5962057 22.8102538,44.6973553 21.5773391,45.5638927 C20.1986157,46.3836874 18.7709818,46.8151583 17.1938477,46.8151583 C14.9301205,46.8151583 13.0106127,45.9980603 11.4316329,44.4573497 C9.81112535,42.8743909 9.02117406,41.0055826 9.06916175,38.7915977 C9.02117406,36.583905 9.81112535,34.7079056 11.4316329,33.1258457 C13.0106127,31.5878318 14.9301205,30.7716327 17.1938477,30.7716327 L17.1938477,30.7716327 Z M90.2791079,41.4810995 C90.226506,39.8981407 89.6857216,38.5983347 88.6484491,37.5439277 C87.5188926,36.4409803 86.1890797,35.9097318 84.6128685,35.9591711 C83.0874135,35.9097318 81.7566778,36.4409803 80.6741861,37.5439277 C79.5898488,38.5983347 78.9973853,39.8981407 78.9973853,41.4810995 C78.9973853,42.9705729 79.5898488,44.2676823 80.6741861,45.3742253 C81.7566778,46.4816672 83.0874135,47.0048257 84.6128685,47.0048257 C86.1890797,47.0048257 87.5188926,46.4816672 88.6004614,45.3742253 C89.6857216,44.2676823 90.226506,42.9705729 90.2791079,41.4810995 L90.2791079,41.4810995 Z M92.1967701,34.0373279 C94.2648552,36.1047925 95.2993591,38.5983347 95.2993591,41.4810995 C95.2993591,44.3638643 94.2648552,46.8601031 92.1967701,48.8781284 C90.0788516,50.9464919 87.5188926,52 84.6128685,52 C81.7086901,52 79.1939503,50.9464919 77.1286337,48.8781284 C75.0070238,46.8601031 73.9762112,44.3638643 73.9762112,41.4810995 C73.9762112,38.5983347 75.0070238,36.1047925 77.1286337,34.0373279 C79.1939503,31.9734589 81.7086901,30.9604012 84.6128685,30.9604012 C87.5188926,30.9604012 90.0788516,31.9734589 92.1967701,34.0373279 L92.1967701,34.0373279 Z M98.4545501,41.1934522 L112,41.1934522 L112,36.7268297 L98.4545501,36.7268297 L98.4545501,41.1934522 Z M82.939759,26.9261485 L87.5198154,26.9261485 L87.5198154,14 L82.939759,14 L82.939759,26.9261485 Z M108.552269,19.6711454 L96.1871315,31.7298576 L92.9378108,28.5585466 L105.300179,16.50343 L108.552269,19.6711454 Z" id="Claro" fill="#E3262E"></path>
            <path d="M70.1702298,15.4353509 L67.1356316,15.4353509 C65.7514775,15.4353509 64.9858933,16.0773458 64.9858933,17.157106 C64.9858933,18.2066439 65.6923019,18.9072517 67.1938825,18.9072517 C68.2553447,18.9072517 68.9321655,18.8193323 69.6108355,18.1782533 C70.0222908,17.798185 70.1702298,17.1854966 70.1702298,16.2522688 L70.1702298,15.4353509 Z M74,11.8462243 L74,21.8543835 L70.2589932,21.8543835 L70.2589932,20.5410873 C69.2271188,21.5622346 68.2553447,22 66.4883985,22 C64.7501156,22 63.4833881,21.5622346 62.5689403,20.6583132 C61.7451051,19.8120889 61.3031375,18.5857964 61.3031375,17.2450254 C61.3031375,14.8226626 62.9822448,12.8380651 66.5466495,12.8380651 L70.1702298,12.8380651 L70.1702298,12.0797602 C70.1702298,10.4166181 69.3445454,9.68761968 67.3122337,9.68761968 C65.8393163,9.68761968 65.1615709,10.0365498 64.3663989,10.9423029 L61.9217073,8.57855299 C63.4232879,6.94471734 64.8971299,6.47764549 67.4592481,6.47764549 C71.7605738,6.47764549 74,8.28640413 74,11.8462243 L74,11.8462243 Z M53.8793748,6.47764549 C52.5238839,6.47764549 51.2284932,7.00241445 50.1966189,8.0528682 L50.1966189,1.07884439 L46.3677733,1.07884439 L46.3677733,21.8543835 L50.1966189,21.8543835 L50.1966189,12.5761385 C50.1966189,10.5915411 51.464271,9.89093331 52.6708983,9.89093331 C53.8793748,9.89093331 55.17569,10.5622346 55.17569,12.5761385 L55.17569,21.8543835 L59.0054602,21.8543835 L59.0054602,12.0211473 C59.0054602,8.81208892 57.2375895,6.47764549 53.8793748,6.47764549 L53.8793748,6.47764549 Z M37.7947097,6.47764549 C36.3809679,6.47764549 34.967226,7.00241445 33.9658641,8.0528682 L33.9658641,6.65256848 L30.2248572,6.65256848 L30.2248572,21.8543835 L34.0537028,21.8543835 L34.0537028,12.6631421 C34.0537028,10.5915411 35.4091937,9.89093331 36.6167456,9.89093331 C37.8252221,9.89093331 39.1502005,10.5915411 39.1502005,12.6631421 L39.1502005,21.8543835 L42.9799708,21.8543835 L42.9799708,12.1374573 C42.9799708,10.475231 42.6554296,9.04470902 41.41829,7.82024811 C40.5639424,6.97402381 39.3277273,6.47764549 37.7947097,6.47764549 L37.7947097,6.47764549 Z M24.7742306,0 C23.4492522,0 22.3591269,1.05045375 22.3591269,2.3637499 C22.3591269,3.67613021 23.4492522,4.75589043 24.7742306,4.75589043 C26.1001337,4.75589043 27.1606712,3.67613021 27.1606712,2.3637499 C27.1606712,1.05045375 26.1001337,0 24.7742306,0 L24.7742306,0 Z M22.8602701,21.8543835 L26.6900404,21.8543835 L26.6900404,6.65256848 L22.8602701,6.65256848 L22.8602701,21.8543835 Z M14.964952,1.07884439 L19.0009121,1.07884439 L19.0009121,21.8543835 L14.9057764,21.8543835 L14.9057764,9.74531679 L10.899404,17.6241778 L8.1301713,17.6241778 L4.09513576,9.74531679 L4.09513576,21.8543835 L0,21.8543835 L0,1.07884439 L4.03688479,1.07884439 L9.51524996,12.3132961 L14.964952,1.07884439 Z" id="Minha" fill="#000000"></path>
        </g>
    </g>
</svg>