<?xml version="1.0" encoding="UTF-8"?>
<svg width="108px" height="69px" viewBox="0 0 108 69" version="1.1" xmlns="http://www.w3.org/2000/svg" xmlns:xlink="http://www.w3.org/1999/xlink">
    <!-- Generator: Sketch 63.1 (92452) - https://sketch.com -->
    <title>Brand / Vertical / Default / Claro Fixo</title>
    <desc>Created with Sketch.</desc>
    <g id="Brand-/-Vertical-/-Default-/-Claro-Fixo" stroke="none" stroke-width="1" fill="none" fill-rule="evenodd">
        <g id="Claro-fixo">
            <path d="M103.6476,55.7490286 C103.6476,54.1755429 103.559736,52.8653714 102.772617,52.0781714 C102.335125,51.6420571 101.753024,51.4089143 100.994278,51.4089143 C100.235532,51.4089143 99.6818034,51.6420571 99.2443119,52.0781714 C98.4571932,52.8653714 98.3693288,54.1755429 98.3693288,55.7490286 C98.3693288,57.3225143 98.4571932,58.6628571 99.2443119,59.4491429 C99.6818034,59.8852571 100.235532,60.1184 100.994278,60.1184 C101.753024,60.1184 102.335125,59.8852571 102.772617,59.4491429 C103.559736,58.6628571 103.6476,57.3225143 103.6476,55.7490286 L103.6476,55.7490286 Z M107.438583,55.7490286 C107.438583,58.5165714 107.088956,60.2345143 105.71882,61.6626286 C104.785261,62.6528 103.239397,63.5268571 100.994278,63.5268571 C98.7482441,63.5268571 97.2325831,62.6528 96.299939,61.6626286 C94.9288881,60.2345143 94.579261,58.5165714 94.579261,55.7490286 C94.579261,53.0107429 94.9288881,51.2928 96.299939,49.8646857 C97.2325831,48.8745143 98.7482441,48.0004571 100.994278,48.0004571 C103.239397,48.0004571 104.785261,48.8745143 105.71882,49.8646857 C107.088956,51.2928 107.438583,53.0107429 107.438583,55.7490286 L107.438583,55.7490286 Z M93.8507186,48.176 L89.3009898,48.176 L86.7053288,52.5161143 L84.1398712,48.176 L79.5910576,48.176 L84.635939,55.6036571 L79.3869559,63.3513143 L83.9357695,63.3513143 L86.7053288,58.8082286 L89.5050915,63.3513143 L94.0548203,63.3513143 L88.804922,55.6036571 L93.8507186,48.176 Z M75.7707864,41.5337143 C74.4583119,41.5337143 73.3801424,42.5833143 73.3801424,43.8934857 C73.3801424,45.2045714 74.4583119,46.2825143 75.7707864,46.2825143 C77.083261,46.2825143 78.1330576,45.2045714 78.1330576,43.8934857 C78.1330576,42.5833143 77.083261,41.5337143 75.7707864,41.5337143 L75.7707864,41.5337143 Z M73.8762102,63.3513143 L77.6671932,63.3513143 L77.6671932,48.1750857 L73.8762102,48.1750857 L73.8762102,63.3513143 Z M69.5314983,42.3785143 L71.6887525,42.3785143 L71.6887525,45.5830857 L70.2014644,45.5830857 C69.2981085,45.5830857 68.8889898,46.0786286 68.8889898,46.9517714 L68.8889898,48.6121143 L71.6887525,48.6121143 L71.6887525,51.4966857 L68.8889898,51.4966857 L68.8889898,63.3513143 L65.098922,63.3513143 L65.098922,51.4966857 L63.5237695,51.4966857 L63.5237695,48.6121143 L65.098922,48.6121143 L65.098922,46.7186286 C65.098922,44.5636571 66.4397695,42.3785143 69.5314983,42.3785143 L69.5314983,42.3785143 Z" id="fixo" fill="#000000"></path>
            <path d="M67.8025831,17.45216 L65.8384475,17.9925029 C64.4701424,18.5319314 63.2455322,19.4635886 62.2131254,20.8807314 L62.2131254,18.28416 L57.3641085,18.2384457 L57.3641085,38.6261029 L62.4099051,38.6261029 L62.4099051,28.8734171 C62.4099051,27.2048457 62.6076,26.0309029 63.0505831,25.2930743 C63.3901424,24.5122743 64.0262441,23.8741029 64.8124475,23.3355886 C65.6938373,22.74496 66.6237356,22.4496457 67.6067186,22.4496457 L69.1708881,22.5520457 L69.1242102,17.3525029 L67.8025831,17.45216 Z M28.3130237,38.6242743 L33.4082441,38.6242743 L33.4082441,12.0624457 L28.3130237,12.0624457 L28.3130237,38.6242743 Z M48.5950576,28.2370743 L47.6166508,28.7710171 L45.0685831,29.4091886 C43.9894983,29.5563886 43.1593627,29.8014171 42.6678712,30.0949029 C41.8377356,30.6343314 41.4423458,31.3730743 41.4423458,32.4007314 C41.4423458,33.3314743 41.6903797,33.9659886 42.1782102,34.4103314 C42.6678712,34.7979886 43.2563797,34.9954743 43.9894983,34.9954743 C45.1665153,34.9954743 46.195261,34.6517029 47.1764136,33.9659886 C48.1044814,33.2802743 48.5950576,32.0542171 48.5950576,30.2933029 L48.5950576,28.2370743 Z M53.9392271,23.6263314 L53.9392271,38.6251886 L48.8403458,38.6251886 L48.8403458,36.5159314 C47.2706847,37.8882743 45.0685831,38.5749029 42.2779729,38.6251886 C40.5600407,38.5749029 39.1404814,38.0875886 38.1108203,37.2034743 C36.9383797,36.1255314 36.3507864,34.6517029 36.3983797,32.84416 C36.3507864,30.2421029 37.2797695,28.4309029 39.1889898,27.3035886 C40.3184136,26.6635886 41.7855661,26.2256457 43.5968542,25.9778743 L47.5178034,25.3442743 C48.3003458,25.0023314 48.6929898,24.4583314 48.6929898,23.77536 C48.6435661,22.9424457 48.398278,22.3527314 47.8116,22.0592457 C47.224922,21.71456 46.3929559,21.51616 45.3157017,21.5682743 C44.038922,21.51616 43.1593627,21.8626743 42.620278,22.5520457 C42.2779729,22.9424457 41.9814305,23.53216 41.8871593,24.4135314 L36.7891932,24.4135314 C36.9383797,22.5520457 37.3795322,21.0773029 38.2590915,19.9518171 C39.6310576,18.1387886 42.0317695,17.2053029 45.4621424,17.2565029 C47.6660746,17.2053029 49.6238034,17.6496457 51.3874983,18.5803886 C53.0514305,19.4626743 53.9392271,21.1760457 53.9392271,23.6263314 L53.9392271,23.6263314 Z M13.1262102,17.1102171 C14.6958712,17.1102171 16.1145153,17.5499886 17.4873966,18.4341029 C18.712922,19.2679314 19.6922441,20.4427886 20.3786847,21.8142171 L25.7173627,21.8142171 C24.9339051,18.9735314 23.4145831,16.6183314 21.1108881,14.8098743 C18.763261,12.9447314 16.0678373,12.0139886 13.1262102,12.0624457 C9.45421017,12.0139886 6.41373559,13.2875886 3.86749831,15.9326171 C1.27183729,18.5310171 -0.000366101695,21.6167314 -0.000366101695,25.2930743 C-0.000366101695,28.9182171 1.27183729,32.10816 3.86749831,34.7029029 C6.41373559,37.2491886 9.45421017,38.5264457 13.1262102,38.5264457 C16.0678373,38.5264457 18.763261,37.6423314 21.1108881,35.8283886 C23.4145831,33.9659886 24.9339051,31.6647314 25.7173627,28.8222171 L20.3786847,28.8222171 C19.6922441,30.1954743 18.712922,31.3182171 17.4873966,32.2023314 C16.1145153,33.0389029 14.6958712,33.4786743 13.1262102,33.4786743 C10.8737695,33.4786743 8.96454915,32.6448457 7.39397288,31.0731886 C5.78129492,29.4576457 4.99600678,27.55136 5.0436,25.2930743 C4.99600678,23.0411886 5.78129492,21.1275886 7.39397288,19.51296 C8.96454915,17.9440457 10.8737695,17.1102171 13.1262102,17.1102171 L13.1262102,17.1102171 Z M85.8294305,28.03776 C85.7781763,26.4222171 85.2400068,25.0965029 84.2085153,24.0194743 C83.0836678,22.8949029 81.7629559,22.3527314 80.1942102,22.4030171 C78.6758034,22.3527314 77.353261,22.8949029 76.276922,24.0194743 C75.196922,25.0965029 74.6084136,26.4222171 74.6084136,28.03776 C74.6084136,29.5563886 75.196922,30.8802743 76.276922,32.0085029 C77.353261,33.13856 78.6758034,33.6715886 80.1942102,33.6715886 C81.7629559,33.6715886 83.0836678,33.13856 84.1618373,32.0085029 C85.2400068,30.8802743 85.7781763,29.5563886 85.8294305,28.03776 L85.8294305,28.03776 Z M87.7377356,20.4427886 C89.7961424,22.5520457 90.8258034,25.0965029 90.8258034,28.03776 C90.8258034,30.9781029 89.7961424,33.5253029 87.7377356,35.5842743 C85.6317356,37.6935314 83.0836678,38.7687314 80.1942102,38.7687314 C77.3047525,38.7687314 74.8033627,37.6935314 72.7477017,35.5842743 C70.6389559,33.5253029 69.6129559,30.9781029 69.6129559,28.03776 C69.6129559,25.0965029 70.6389559,22.5520457 72.7477017,20.4427886 C74.8033627,18.3362743 77.3047525,17.3040457 80.1942102,17.3040457 C83.0836678,17.3040457 85.6317356,18.3362743 87.7377356,20.4427886 L87.7377356,20.4427886 Z M93.9642102,27.74336 L107.438583,27.74336 L107.438583,23.18656 L93.9642102,23.18656 L93.9642102,27.74336 Z M78.530278,13.1879314 L83.0864136,13.1879314 L83.0864136,0.000274285714 L78.530278,0.000274285714 L78.530278,13.1879314 Z M104.010041,5.78678857 L91.7081085,18.0885029 L88.4763458,14.8528457 L100.773702,2.55478857 L104.010041,5.78678857 Z" id="Claro" fill="#E3262E"></path>
        </g>
    </g>
</svg>