<?xml version="1.0" encoding="UTF-8" standalone="no"?>
<!-- Generator: Adobe Illustrator 25.4.1, SVG Export Plug-In . SVG Version: 6.00 Build 0)  -->

<svg
   xmlns:dc="http://purl.org/dc/elements/1.1/"
   xmlns:cc="http://creativecommons.org/ns#"
   xmlns:rdf="http://www.w3.org/1999/02/22-rdf-syntax-ns#"
   xmlns:svg="http://www.w3.org/2000/svg"
   xmlns="http://www.w3.org/2000/svg"
   xmlns:xlink="http://www.w3.org/1999/xlink"
   xmlns:sodipodi="http://sodipodi.sourceforge.net/DTD/sodipodi-0.dtd"
   xmlns:inkscape="http://www.inkscape.org/namespaces/inkscape"
   version="1.1"
   x="0px"
   y="0px"
   viewBox="0 0 722.0412 869.60864"
   enable-background="new 0 0 720 1600"
   xml:space="preserve"
   id="svg1830"
   sodipodi:docname="bg_home-bottom.svg"
   inkscape:version="0.92.5 (2060ec1f9f, 2020-04-08)"
   width="722.0412"
   height="869.60864"><metadata
   id="metadata1836"><rdf:RDF><cc:Work
       rdf:about=""><dc:format>image/svg+xml</dc:format><dc:type
         rdf:resource="http://purl.org/dc/dcmitype/StillImage" /></cc:Work></rdf:RDF></metadata><defs
   id="defs1834" /><sodipodi:namedview
   pagecolor="#ffffff"
   bordercolor="#666666"
   borderopacity="1"
   objecttolerance="10"
   gridtolerance="10"
   guidetolerance="10"
   inkscape:pageopacity="0"
   inkscape:pageshadow="2"
   inkscape:window-width="1366"
   inkscape:window-height="724"
   id="namedview1832"
   showgrid="false"
   inkscape:zoom="0.295"
   inkscape:cx="265.04978"
   inkscape:cy="832.9233"
   inkscape:window-x="0"
   inkscape:window-y="0"
   inkscape:window-maximized="1"
   inkscape:current-layer="Layer_3" />
<g
   id="Layer_3"
   transform="translate(1.6949152,-730.50842)">
	
	<g
   id="g1826">
		<defs
   id="defs1741">
			<rect
   id="SVGID_00000069359639297152218670000009439148702716003499_"
   width="720"
   height="1600"
   x="0"
   y="0" />
		</defs>
		<clipPath
   id="SVGID_00000049931599770201061210000017183678290597032364_">
			<use
   xlink:href="#SVGID_00000069359639297152218670000009439148702716003499_"
   overflow="visible"
   id="use1743"
   style="overflow:visible"
   x="0"
   y="0"
   width="100%"
   height="100%" />
		</clipPath>
		
		
		
		<g
   clip-path="url(#SVGID_00000049931599770201061210000017183678290597032364_)"
   id="g1796">
			
				<image
   sodipodi:absref="/home/rafael/_Trabalho/CabeNoBolso/assets/img/../../../_Materiais/CabeNoBolso/Assets/E01E6520.png"
   xlink:href="../../../_Materiais/CabeNoBolso/Assets/E01E6520.png"
   style="overflow:visible;opacity:0.3"
   id="image1785"
   transform="translate(-321.0444,630.9556)"
   height="705"
   width="1493"
   overflow="visible">
			</image>
			<g
   id="g1794">
				
					<linearGradient
   id="SVGID_00000024703104031032656110000013637403295230410922_"
   gradientUnits="userSpaceOnUse"
   x1="4144.5928"
   y1="3154.0212"
   x2="5571.0034"
   y2="3154.0212"
   gradientTransform="rotate(180,2638.5417,2065.6148)">
					<stop
   offset="0"
   style="stop-color:#C7DAC7"
   id="stop1787" />
					<stop
   offset="1"
   style="stop-color:#55CCD4"
   id="stop1789" />
				</linearGradient>
				<path
   d="M 1132.5,657.8 C 1085.5,756.5 979.6,820 875.6,811.7 770.7,803.3 673.8,729.6 569.3,741.8 448.2,755.9 357.6,881.1 236.3,892.5 113,904 0.8,794 -122.3,807 c -81.3,8.6 -153.9,76.8 -171.6,161.5 v 328.2 h 1426.4 z"
   id="path1792"
   inkscape:connector-curvature="0"
   style="fill:url(#SVGID_00000024703104031032656110000013637403295230410922_)" />
			</g>
		</g>
		<g
   clip-path="url(#SVGID_00000049931599770201061210000017183678290597032364_)"
   id="g1809">
			
				<image
   sodipodi:absref="/home/rafael/_Trabalho/CabeNoBolso/assets/img/../../../_Materiais/CabeNoBolso/Assets/E01E6521.png"
   xlink:href="../../../_Materiais/CabeNoBolso/Assets/E01E6521.png"
   style="overflow:visible;opacity:0.3"
   id="image1798"
   transform="translate(-457.0444,671.9556)"
   height="443"
   width="1487"
   overflow="visible">
			</image>
			<g
   id="g1807">
				
					<linearGradient
   id="SVGID_00000137816208987231761260000004891849888562306977_"
   gradientUnits="userSpaceOnUse"
   x1="4286.9141"
   y1="3244.2156"
   x2="5706.3931"
   y2="3244.2156"
   gradientTransform="rotate(180,2638.5417,2065.6148)">
					<stop
   offset="0"
   style="stop-color:#FFA5D8"
   id="stop1800" />
					<stop
   offset="1"
   style="stop-color:#B2D7C9"
   id="stop1802" />
				</linearGradient>
				<path
   d="m -429.3,756.6 c 43.4,-60 128.2,-69.5 195.6,-44.7 67.3,24.8 122.3,76.4 178.5,122.9 56.1,46.5 119.1,90.6 190.2,95.7 99.4,7.2 193.3,-63 292.5,-54.4 64.8,5.6 126.3,44.7 190.8,36.6 47,-5.9 87.7,-36.2 125,-67.1 37.3,-30.9 74.6,-64.3 119.9,-78.6 45.3,-14.3 101.7,-3.6 126.9,38.8 v 269.1 H -429.3 Z"
   id="path1805"
   inkscape:connector-curvature="0"
   style="fill:url(#SVGID_00000137816208987231761260000004891849888562306977_)" />
			</g>
		</g>
		<g
   clip-path="url(#SVGID_00000049931599770201061210000017183678290597032364_)"
   id="g1822">
			
				<image
   sodipodi:absref="/home/rafael/_Trabalho/CabeNoBolso/assets/img/../../../_Materiais/CabeNoBolso/Assets/E01E6526.png"
   xlink:href="../../../_Materiais/CabeNoBolso/Assets/E01E6526.png"
   style="overflow:visible;opacity:0.3"
   id="image1811"
   transform="translate(-408.0444,846.9556)"
   height="816"
   width="1438"
   overflow="visible">
			</image>
			<g
   id="g1820">
				
					<linearGradient
   id="SVGID_00000096778930033514633040000006980789323491448988_"
   gradientUnits="userSpaceOnUse"
   x1="599.34149"
   y1="1656.6782"
   x2="184.9521"
   y2="1095.5796">
					<stop
   offset="0"
   style="stop-color:#BE9DDF"
   id="stop1813" />
					<stop
   offset="1"
   style="stop-color:#7EB8DA"
   id="stop1815" />
				</linearGradient>
				<path
   d="m -380.5,979.6 c 43.1,-35.1 103.9,-32.6 156.5,-18.1 52.6,14.5 103.2,39.4 157.4,44.1 123.5,10.6 236.1,-84.8 360,-87 120.2,-2.1 234.8,83.9 353.1,61.4 60.1,-11.5 112.2,-49.7 167.5,-77.1 55.4,-27.4 123.2,-43.3 175.8,-10.4 v 730.1 H -380.5 Z"
   id="path1818"
   inkscape:connector-curvature="0"
   style="fill:url(#SVGID_00000096778930033514633040000006980789323491448988_)" />
			</g>
		</g>
		
			<rect
   x="2.7"
   y="-38.599998"
   transform="rotate(-180,359.5739,812.343)"
   clip-path="url(#SVGID_00000049931599770201061210000017183678290597032364_)"
   width="713.70001"
   height="1701.9"
   id="rect1824"
   style="fill:none" />
	</g>
</g>
<g
   id="Layer_1"
   transform="translate(1.6949152,-730.50842)">
</g>
</svg>