<?xml version="1.0" encoding="UTF-8" standalone="no"?>
<!-- Generator: Adobe Illustrator 25.4.1, SVG Export Plug-In . SVG Version: 6.00 Build 0)  -->

<svg
   xmlns:dc="http://purl.org/dc/elements/1.1/"
   xmlns:cc="http://creativecommons.org/ns#"
   xmlns:rdf="http://www.w3.org/1999/02/22-rdf-syntax-ns#"
   xmlns:svg="http://www.w3.org/2000/svg"
   xmlns="http://www.w3.org/2000/svg"
   xmlns:xlink="http://www.w3.org/1999/xlink"
   xmlns:sodipodi="http://sodipodi.sourceforge.net/DTD/sodipodi-0.dtd"
   xmlns:inkscape="http://www.inkscape.org/namespaces/inkscape"
   version="1.1"
   x="0px"
   y="0px"
   viewBox="0 0 720 471.0943"
   enable-background="new 0 0 720 1600"
   xml:space="preserve"
   id="svg1830"
   sodipodi:docname="bg_home-top.svg"
   inkscape:version="0.92.5 (2060ec1f9f, 2020-04-08)"
   width="720"
   height="471.0943"><metadata
   id="metadata1836"><rdf:RDF><cc:Work
       rdf:about=""><dc:format>image/svg+xml</dc:format><dc:type
         rdf:resource="http://purl.org/dc/dcmitype/StillImage" /><dc:title /></cc:Work></rdf:RDF></metadata><defs
   id="defs1834" /><sodipodi:namedview
   pagecolor="#ffffff"
   bordercolor="#666666"
   borderopacity="1"
   objecttolerance="10"
   gridtolerance="10"
   guidetolerance="10"
   inkscape:pageopacity="0"
   inkscape:pageshadow="2"
   inkscape:window-width="1366"
   inkscape:window-height="724"
   id="namedview1832"
   showgrid="false"
   inkscape:zoom="0.834386"
   inkscape:cx="226.95514"
   inkscape:cy="184.10165"
   inkscape:window-x="0"
   inkscape:window-y="0"
   inkscape:window-maximized="1"
   inkscape:current-layer="g1826" />
<g
   id="Layer_3">
	
	<g
   id="g1826">
		<defs
   id="defs1741">
			<rect
   id="SVGID_00000069359639297152218670000009439148702716003499_"
   width="720"
   height="1600"
   x="0"
   y="0" />
		</defs>
		<clipPath
   id="SVGID_00000049931599770201061210000017183678290597032364_">
			<use
   xlink:href="#SVGID_00000069359639297152218670000009439148702716003499_"
   overflow="visible"
   id="use1743"
   style="overflow:visible"
   x="0"
   y="0"
   width="100%"
   height="100%" />
		</clipPath>
		<g
   clip-path="url(#SVGID_00000049931599770201061210000017183678290597032364_)"
   id="g1757">
			
				<image
   sodipodi:absref="/home/rafael/_Trabalho/CabeNoBolso/assets/img/../../../_Materiais/CabeNoBolso/Assets/E01E6523.png"
   xlink:href="../../../_Materiais/CabeNoBolso/Assets/E01E6523.png"
   overflow="visible"
   width="1414"
   height="346"
   transform="translate(-587.9058,125.0943)"
   id="image1746"
   style="overflow:visible;opacity:0.3">
			</image>
			<g
   id="g1755">
				
					<linearGradient
   id="SVGID_00000036945966344371686740000003654739299393704374_"
   gradientUnits="userSpaceOnUse"
   x1="18934.15"
   y1="8606.9766"
   x2="20301.031"
   y2="8606.9766"
   gradientTransform="rotate(180,9866.2178,4450.3823)">
					<stop
   offset="0"
   style="stop-color:#FFA5D8"
   id="stop1748" />
					<stop
   offset="1"
   style="stop-color:#B2D7C9"
   id="stop1750" />
				</linearGradient>
				<path
   d="m 798.3,408.1 c -56.2,21.3 -129,10.2 -188.4,-7.4 -59.4,-17.6 -116.9,-41.2 -182.3,-44.1 -65.8,-3 -129.3,15.6 -195,19.1 -77.5,4.1 -153.4,-12.8 -228,-26.9 -74.6,-14 -155.2,-25.3 -229.2,-10.1 -62,12.7 -110.8,42.2 -163.3,66.6 -52.4,24.4 -117.3,44.9 -180.7,35.4 V 144.4 H 798.3 Z"
   id="path1753"
   inkscape:connector-curvature="0"
   style="fill:url(#SVGID_00000036945966344371686740000003654739299393704374_)" />
			</g>
		</g>
		<g
   clip-path="url(#SVGID_00000049931599770201061210000017183678290597032364_)"
   id="g1770">
			
				<image
   sodipodi:absref="/home/rafael/_Trabalho/CabeNoBolso/assets/img/../../../_Materiais/CabeNoBolso/Assets/E01E652D.png"
   xlink:href="../../../_Materiais/CabeNoBolso/Assets/E01E652D.png"
   overflow="visible"
   width="993"
   height="401"
   transform="translate(-301.7352,166.2648)"
   id="image1759"
   style="overflow:visible;opacity:0.3">
			</image>
			<g
   id="g1768">
				
					<linearGradient
   id="SVGID_00000176732553881489772410000006590267257527939475_"
   gradientUnits="userSpaceOnUse"
   x1="19077.254"
   y1="8540.0049"
   x2="20009.158"
   y2="8540.0049"
   gradientTransform="rotate(180,9866.2178,4450.3823)">
					<stop
   offset="0"
   style="stop-color:#C7DAC7"
   id="stop1761" />
					<stop
   offset="1"
   style="stop-color:#55CCD4"
   id="stop1763" />
				</linearGradient>
				<path
   d="m 655.2,190.8 c -28.1,80.3 -102,140.3 -182.4,148.1 -58.2,5.7 -115.5,-13.8 -172.7,-26.5 -57.2,-12.7 -120.2,-18 -170.8,12.9 -20.3,12.4 -37.5,30 -58.4,41.3 -68.9,37 -153.6,-4.9 -228.9,13.5 -64.5,15.8 -115.4,80.5 -118.7,150.6 v -340 h 931.9"
   id="path1766"
   inkscape:connector-curvature="0"
   style="fill:url(#SVGID_00000176732553881489772410000006590267257527939475_)" />
			</g>
		</g>
		<g
   clip-path="url(#SVGID_00000049931599770201061210000017183678290597032364_)"
   id="g1783">
			
				<image
   sodipodi:absref="/home/rafael/_Trabalho/CabeNoBolso/assets/img/../../../_Materiais/CabeNoBolso/Assets/E01E652F.png"
   xlink:href="../../../_Materiais/CabeNoBolso/Assets/E01E652F.png"
   overflow="visible"
   width="1245"
   height="834"
   transform="translate(-109.7352,-485.7352)"
   id="image1772"
   style="overflow:visible;opacity:0.3">
			</image>
			<g
   id="g1781">
				
					<linearGradient
   id="SVGID_00000170264532518978282290000017089149644490725264_"
   gradientUnits="userSpaceOnUse"
   x1="18633.984"
   y1="8975.6123"
   x2="19817.43"
   y2="8975.6123"
   gradientTransform="rotate(180,9866.2178,4450.3823)">
					<stop
   offset="0"
   style="stop-color:#BE9DDF"
   id="stop1774" />
					<stop
   offset="1"
   style="stop-color:#7EB8DA"
   id="stop1776" />
				</linearGradient>
				<path
   d="M 1098.5,-414.2 C 994.7,293 713.8,320.6 595,310.4 532.2,305 472.9,278.7 413.3,256.9 353.7,235.1 290.1,217.3 228.2,229.7 176.3,240.1 128.2,271.1 75.4,270.9 20.7,270.7 -32.2,232.9 -53,179.2 l -32,-640.7 z"
   id="path1779"
   inkscape:connector-curvature="0"
   style="fill:url(#SVGID_00000170264532518978282290000017089149644490725264_)" />
			</g>
		</g>
		
		
		
		
			<rect
   x="2.7"
   y="-38.599998"
   transform="rotate(-180,359.5739,812.343)"
   clip-path="url(#SVGID_00000049931599770201061210000017183678290597032364_)"
   width="713.70001"
   height="1701.9"
   id="rect1824"
   style="fill:none" />
	</g>
</g>
<g
   id="Layer_1">
</g>
</svg>