<?xml version="1.0" encoding="UTF-8" standalone="no"?>
<!-- Generator: Adobe Illustrator 25.4.1, SVG Export Plug-In . SVG Version: 6.00 Build 0)  -->

<svg
   xmlns:dc="http://purl.org/dc/elements/1.1/"
   xmlns:cc="http://creativecommons.org/ns#"
   xmlns:rdf="http://www.w3.org/1999/02/22-rdf-syntax-ns#"
   xmlns:svg="http://www.w3.org/2000/svg"
   xmlns="http://www.w3.org/2000/svg"
   xmlns:sodipodi="http://sodipodi.sourceforge.net/DTD/sodipodi-0.dtd"
   xmlns:inkscape="http://www.inkscape.org/namespaces/inkscape"
   version="1.1"
   x="0px"
   y="0px"
   viewBox="0 0 223.29998 122.4"
   enable-background="new 0 0 327.7 327.7"
   xml:space="preserve"
   id="svg94"
   sodipodi:docname="boleto.svg"
   width="223.29999"
   height="122.4"
   inkscape:version="0.92.5 (2060ec1f9f, 2020-04-08)"><metadata
   id="metadata100"><rdf:RDF><cc:Work
       rdf:about=""><dc:format>image/svg+xml</dc:format><dc:type
         rdf:resource="http://purl.org/dc/dcmitype/StillImage" /></cc:Work></rdf:RDF></metadata><defs
   id="defs98" /><sodipodi:namedview
   pagecolor="#ffffff"
   bordercolor="#666666"
   borderopacity="1"
   objecttolerance="10"
   gridtolerance="10"
   guidetolerance="10"
   inkscape:pageopacity="0"
   inkscape:pageshadow="2"
   inkscape:window-width="1366"
   inkscape:window-height="724"
   id="namedview96"
   showgrid="false"
   inkscape:zoom="0.72017086"
   inkscape:cx="111.65001"
   inkscape:cy="19.449997"
   inkscape:window-x="0"
   inkscape:window-y="0"
   inkscape:window-maximized="1"
   inkscape:current-layer="g91" />
<g
   id="Layer_3"
   transform="translate(-52.200001,-60.900002)">
</g>
<g
   id="Layer_1"
   transform="translate(-52.200001,-60.900002)">
	<g
   id="g91">
		<g
   id="g5">
			<path
   d="M 283.3,327.7 H 44.4 C 19.9,327.7 0,307.8 0,283.3 V 44.4 C 0,19.9 19.9,0 44.4,0 h 238.9 c 24.5,0 44.4,19.9 44.4,44.4 v 238.9 c 0,24.5 -19.9,44.4 -44.4,44.4 z M 44.4,4.8 C 22.6,4.8 4.8,22.6 4.8,44.4 v 238.9 c 0,21.8 17.7,39.5 39.5,39.5 h 238.9 c 21.8,0 39.5,-17.7 39.5,-39.5 V 44.4 C 322.7,22.6 305,4.9 283.2,4.9 H 44.4 Z"
   id="path3"
   style="fill:none"
   inkscape:connector-curvature="0" />
		</g>
		<g
   id="g63">
			<g
   id="g9">
				<rect
   x="52.200001"
   y="60.900002"
   width="15.7"
   height="122.4"
   id="rect7"
   style="fill:#009e9b" />
			</g>
			<g
   id="g13">
				<rect
   x="78.599998"
   y="60.900002"
   width="7.9000001"
   height="122.4"
   id="rect11"
   style="fill:#009e9b" />
			</g>
			<g
   id="g17">
				<rect
   x="187.39999"
   y="60.900002"
   width="7.9000001"
   height="122.4"
   id="rect15"
   style="fill:#009e9b" />
			</g>
			<g
   id="g21">
				<rect
   x="128.2"
   y="60.900002"
   width="7.9000001"
   height="122.4"
   id="rect19"
   style="fill:#009e9b" />
			</g>
			<g
   id="g25">
				<rect
   x="241.7"
   y="60.900002"
   width="7.9000001"
   height="122.4"
   id="rect23"
   style="fill:#009e9b" />
			</g>
			<g
   id="g29">
				<rect
   x="90.699997"
   y="60.900002"
   width="17.700001"
   height="122.4"
   id="rect27"
   style="fill:#009e9b" />
			</g>
			<g
   id="g33">
				<rect
   x="257.79999"
   y="60.900002"
   width="17.700001"
   height="122.4"
   id="rect31"
   style="fill:#009e9b" />
			</g>
			<g
   id="g37">
				<rect
   x="204.89999"
   y="60.900002"
   width="17.700001"
   height="122.4"
   id="rect35"
   style="fill:#009e9b" />
			</g>
			<g
   id="g41">
				<rect
   x="164.60001"
   y="60.900002"
   width="17.700001"
   height="122.4"
   id="rect39"
   style="fill:#009e9b" />
			</g>
			<g
   id="g45">
				<rect
   x="114.6"
   y="60.900002"
   width="3.4000001"
   height="122.4"
   id="rect43"
   style="fill:#009e9b" />
			</g>
			<g
   id="g49">
				<rect
   x="140.8"
   y="60.900002"
   width="3.4000001"
   height="122.4"
   id="rect47"
   style="fill:#009e9b" />
			</g>
			<g
   id="g53">
				<rect
   x="235.39999"
   y="60.900002"
   width="3.4000001"
   height="122.4"
   id="rect51"
   style="fill:#009e9b" />
			</g>
			<g
   id="g57">
				<rect
   x="226.7"
   y="60.900002"
   width="3.4000001"
   height="122.4"
   id="rect55"
   style="fill:#009e9b" />
			</g>
			<g
   id="g61">
				<rect
   x="147.5"
   y="60.900002"
   width="3.4000001"
   height="122.4"
   id="rect59"
   style="fill:#009e9b" />
			</g>
		</g>
		
	</g>
</g>
</svg>