<?xml version="1.0" encoding="UTF-8" standalone="no"?>
<!-- Generator: Adobe Illustrator 25.4.1, SVG Export Plug-In . SVG Version: 6.00 Build 0)  -->

<svg
   xmlns:dc="http://purl.org/dc/elements/1.1/"
   xmlns:cc="http://creativecommons.org/ns#"
   xmlns:rdf="http://www.w3.org/1999/02/22-rdf-syntax-ns#"
   xmlns:svg="http://www.w3.org/2000/svg"
   xmlns="http://www.w3.org/2000/svg"
   xmlns:sodipodi="http://sodipodi.sourceforge.net/DTD/sodipodi-0.dtd"
   xmlns:inkscape="http://www.inkscape.org/namespaces/inkscape"
   version="1.1"
   x="0px"
   y="0px"
   viewBox="0 0 232.65446 236.77199"
   enable-background="new 0 0 314.7 314.7"
   xml:space="preserve"
   id="svg12"
   sodipodi:docname="cabenobolso_logo.svg"
   width="232.65446"
   height="236.772"
   inkscape:version="0.92.5 (2060ec1f9f, 2020-04-08)"><metadata
   id="metadata18"><rdf:RDF><cc:Work
       rdf:about=""><dc:format>image/svg+xml</dc:format><dc:type
         rdf:resource="http://purl.org/dc/dcmitype/StillImage" /><dc:title></dc:title></cc:Work></rdf:RDF></metadata><defs
   id="defs16" /><sodipodi:namedview
   pagecolor="#ffffff"
   bordercolor="#666666"
   borderopacity="1"
   objecttolerance="10"
   gridtolerance="10"
   guidetolerance="10"
   inkscape:pageopacity="0"
   inkscape:pageshadow="2"
   inkscape:window-width="1366"
   inkscape:window-height="724"
   id="namedview14"
   showgrid="false"
   inkscape:zoom="0.74992053"
   inkscape:cx="113.54512"
   inkscape:cy="118.70935"
   inkscape:window-x="0"
   inkscape:window-y="0"
   inkscape:window-maximized="1"
   inkscape:current-layer="g9" />
<g
   id="Layer_3"
   transform="translate(-43.804887,-39.287354)">
</g>
<g
   id="Layer_1"
   transform="translate(-43.804887,-39.287354)">
	<g
   id="g9">
		
		<g
   id="g7">
			<path
   d="m 110.8,176.7 c 13.8,-17.1 23.2,-38.8 24.5,-60.8 0.3,-5.4 0.1,-10.9 -0.6,-16.2 -0.8,-5.5 -2.5,-11.7 -0.5,-17.1 1.5,-4.3 5.9,-8.5 10.7,-6 3.8,2 5.8,6.8 7.2,10.6 4,11.1 6.1,23.3 6.5,35.1 0.2,6.1 -0.2,12.1 -1.1,18.1 -0.5,3.1 -1.1,6.2 -2,9.3 -0.5,1.6 -1.2,5.3 -3,6 -0.9,0.3 -1.5,-0.7 -2.2,-0.8 0.4,0 0.6,0.8 0.6,0.7 0.2,0.5 0.2,-0.2 0,0.2 0.1,-0.2 0.5,-1.3 0.3,-0.9 1.2,-2.3 3.1,-4.2 4.9,-5.9 6,-5.9 12.9,-10.9 19.9,-15.5 8.4,-5.5 17.4,-10.6 26.9,-13.9 5.2,-1.8 11,-0.2 14.4,4.2 2.6,3.4 2.4,10.7 -2.7,11.7 -3.7,0.7 -2.7,6 1,5.7 4.2,-0.3 8.6,2.3 10.1,6.3 1.5,4.3 -1,9.1 -4.3,11.8 -1.7,1.3 -1.2,4.3 0.9,4.9 4.2,1.3 8.5,4.4 9.1,9 0.6,4.2 -1.1,8.6 -4.9,10.7 -2.7,1.5 -1.7,6.3 1.7,5.5 3,-0.7 5.1,1.6 6.1,4.2 1.3,3.1 0.6,6.3 -1.5,8.8 -4.7,5.5 -12.4,8.7 -19.2,10.6 -14.9,4.2 -31.7,4.4 -45.4,12.3 -7,4 -11.3,10.3 -15.6,16.9 -4.3,6.5 -9,12.9 -16.4,15.9 -6.3,2.5 -13.2,1 -19.4,-1.2 -7.2,-2.5 -13.7,-5.8 -19.8,-10.4 -12.3,-9.1 -23.2,-21 -30.6,-34.5 -7.9,-14.4 -13.9,-29.8 -15.9,-46.2 -2.2,-18 1,-36.8 7.7,-53.7 5.4,-13.4 13.9,-25 24.6,-34.6 13.3,-12 28.9,-21.5 45.9,-27.3 16.3,-5.5 33.7,-6.3 50.8,-4.2 15.3,1.9 30.6,6.6 43.3,15.5 12.2,8.6 20.7,20.9 27.7,33.9 7.5,13.9 13.2,28.8 16.7,44.1 3.2,14.3 4.2,28.5 1.1,42.9 -6.2,28.8 -23.6,55.2 -48,71.8 -11.2,7.7 -24.2,13 -37.6,15 -7.1,1 -14.5,1.3 -21.6,-0.4 -8.1,-1.9 -15.6,-5.9 -22.4,-10.6 -15.6,-10.9 -27.4,-25.8 -39,-40.6 -4.2,-5.3 -8.4,-10.7 -11.6,-16.6 -1.4,-2.6 -2.9,-5.5 -3.2,-8.5 -0.4,-3.1 1.2,-6.2 3,-8.7 4.3,-5.7 11.2,-8.9 17.5,-11.8 -1.1,-0.2 -2.3,-0.5 -3.4,-0.7 14.4,15.2 28.7,30.5 43.1,45.7 5.3,5.6 10.6,11.2 15.1,17.5 1,1.4 1.9,2.9 2.7,4.5 0.5,1.1 0.8,2.2 0.7,2.7 -0.5,2.5 -2.6,5.4 -4.2,7.7 -4.5,6.4 -9.6,12.4 -15.1,18.1 -2.6,2.7 1.2,7.1 3.8,4.4 5.2,-5.4 10.2,-11.1 14.6,-17.1 2.2,-3 4.4,-6.1 5.8,-9.5 1.2,-2.9 1.1,-5.6 -0.2,-8.5 -3.3,-7.4 -9.6,-13.9 -15.1,-19.7 -7,-7.5 -14,-14.8 -21,-22.3 -8.5,-9.1 -17.1,-18.2 -25.7,-27.2 -0.9,-0.9 -2.2,-1.3 -3.4,-0.7 -7.2,3.3 -14.7,7.1 -19.7,13.5 -2.3,2.9 -4,6.7 -4.2,10.4 -0.2,3.2 0.8,6.3 2,9.2 3,6.9 7.7,13.2 12.3,19.1 5.8,7.4 11.6,14.8 17.8,21.8 12.3,14 27.6,27.7 45.9,33 14.7,4.3 31,1.7 45.2,-3.6 29,-10.8 51.9,-35.2 64.3,-63.2 6.3,-14.2 10.3,-30 9.7,-45.6 -0.6,-16.5 -5,-32.8 -11,-48.2 -5.8,-14.8 -13.3,-29.2 -23.2,-41.6 -10.4,-13.1 -25,-22 -40.9,-26.9 -16.3,-5 -34,-6.5 -50.9,-4.9 -19.6,1.8 -38.3,9.8 -54.6,20.7 -14,8.5 -26.5,19.7 -35.2,33.4 -9.5,15.1 -14.9,33.3 -16.4,50.9 -1.7,18.8 2.2,37.5 9.5,54.7 6.5,15.2 15.2,28.9 27,40.5 11.7,11.5 25.8,21.3 42.3,24.3 7.3,1.4 14.3,0 20.5,-4.1 7.7,-5.1 12,-12.9 17.1,-20.3 2.3,-3.3 4.8,-6.3 8.1,-8.6 3.1,-2.1 6.6,-3.6 10.2,-4.8 8.1,-2.8 16.6,-4 25,-5.7 7.9,-1.6 16.1,-3.4 23.2,-7.4 6.8,-3.9 14.2,-9.5 13.4,-18.3 -0.6,-6.6 -6.3,-13.4 -13.5,-11.8 0.6,1.8 1.1,3.7 1.7,5.5 6,-3.3 8.9,-9.5 8.3,-16.3 -0.6,-6.9 -6.6,-12.3 -13,-14.2 0.3,1.6 0.6,3.3 0.9,4.9 5.3,-4.3 8.4,-12.1 5.8,-18.6 -2.6,-6.5 -9.5,-10.1 -16.3,-9.5 0.3,1.9 0.6,3.8 1,5.7 5.7,-1.1 9.1,-6.4 9.2,-12 0.1,-5.9 -3.4,-11 -8.5,-13.8 -10.2,-5.7 -21.4,0.6 -30.6,5.6 -9.6,5.2 -18.8,11.2 -27.3,18.2 -3.2,2.7 -6.4,5.5 -9.2,8.6 -1.8,2 -3.8,4.5 -4.2,7.3 -0.5,3.9 3.3,6.3 6.8,6.5 6.6,0.3 8.8,-8.2 9.9,-13.2 3.2,-13.9 3.3,-28.2 1,-42.3 -1.2,-6.9 -2.8,-13.8 -5,-20.4 -1.7,-5 -4.3,-10.5 -8.9,-13.5 -4.9,-3.2 -11.1,-2.6 -15.4,1.4 -5,4.6 -6.1,11.2 -5.7,17.7 0.5,6.5 2,12.8 2,19.4 0,6.5 -0.8,13 -2.2,19.4 -2.9,12.7 -8.4,24.9 -15.7,35.8 -1.8,2.7 -3.7,5.3 -5.7,7.8 -2.3,2.9 2.5,6.2 4.9,3.3 z"
   id="path5"
   inkscape:connector-curvature="0"
   style="fill:#ffffff" />
		</g>
	</g>
</g>
</svg>