<?xml version="1.0" encoding="UTF-8" standalone="no"?>
<!-- Generator: Adobe Illustrator 26.0.2, SVG Export Plug-In . SVG Version: 6.00 Build 0)  -->

<svg
   xmlns:dc="http://purl.org/dc/elements/1.1/"
   xmlns:cc="http://creativecommons.org/ns#"
   xmlns:rdf="http://www.w3.org/1999/02/22-rdf-syntax-ns#"
   xmlns:svg="http://www.w3.org/2000/svg"
   xmlns="http://www.w3.org/2000/svg"
   xmlns:sodipodi="http://sodipodi.sourceforge.net/DTD/sodipodi-0.dtd"
   xmlns:inkscape="http://www.inkscape.org/namespaces/inkscape"
   version="1.1"
   id="Layer_1"
   x="0px"
   y="0px"
   viewBox="0 0 47.7 47.7"
   style="enable-background:new 0 0 47.7 47.7;"
   xml:space="preserve"
   sodipodi:docname="close_alt.svg"
   inkscape:version="0.92.5 (2060ec1f9f, 2020-04-08)"><metadata
   id="metadata11"><rdf:RDF><cc:Work
       rdf:about=""><dc:format>image/svg+xml</dc:format><dc:type
         rdf:resource="http://purl.org/dc/dcmitype/StillImage" /><dc:title></dc:title></cc:Work></rdf:RDF></metadata><defs
   id="defs9" /><sodipodi:namedview
   pagecolor="#ffffff"
   bordercolor="#666666"
   borderopacity="1"
   objecttolerance="10"
   gridtolerance="10"
   guidetolerance="10"
   inkscape:pageopacity="0"
   inkscape:pageshadow="2"
   inkscape:window-width="1366"
   inkscape:window-height="724"
   id="namedview7"
   showgrid="false"
   inkscape:zoom="4.947589"
   inkscape:cx="-19.403391"
   inkscape:cy="23.85"
   inkscape:window-x="0"
   inkscape:window-y="0"
   inkscape:window-maximized="1"
   inkscape:current-layer="Layer_1" />
<style
   type="text/css"
   id="style2">
	.st0{fill:#AAB1DA;}
</style>
<path
   class="st0"
   d="M 18.455278,39.409903 23.9,33.96518 l 5.444722,5.444723 c 2.899138,2.899137 7.566043,2.899137 10.465181,0 v 0 c 2.899137,-2.899138 2.899137,-7.566043 0,-10.465181 L 34.36518,23.5 39.809903,18.055278 c 2.899137,-2.899138 2.899137,-7.566043 0,-10.4651806 -2.899138,-2.8991378 -7.566043,-2.8991378 -10.465181,0 L 23.9,13.03482 18.455278,7.5900974 c -2.899138,-2.8991378 -7.566043,-2.8991378 -10.4651806,0 v 0 c -2.8991378,2.8991376 -2.8991378,7.5660426 0,10.4651806 L 13.43482,23.5 7.9900974,28.944722 c -2.8991378,2.899138 -2.8991378,7.566043 0,10.465181 2.8991376,2.899137 7.5660426,2.899137 10.4651806,0 z"
   id="path4"
   inkscape:connector-curvature="0"
   style="fill:#ffffff;fill-opacity:1" />
</svg>