<svg xmlns="http://www.w3.org/2000/svg" viewBox="0 0 276.59 43.03"><defs><style>.cls-1{fill:#231f20;}</style></defs><g id="Layer_2" data-name="Layer 2"><g id="Layer_1-2" data-name="Layer 1"><rect class="cls-1" width="4.58" height="43.03"/><rect class="cls-1" x="6.87" width="2.29" height="37.25"/><rect class="cls-1" x="13.74" width="6.87" height="37.25"/><rect class="cls-1" x="25.19" width="2.29" height="37.25"/><rect class="cls-1" x="29.77" width="4.58" height="37.25"/><rect class="cls-1" x="38.93" width="6.87" height="37.25"/><rect class="cls-1" x="50.38" width="2.29" height="37.25"/><rect class="cls-1" x="59.54" width="2.29" height="37.25"/><rect class="cls-1" x="64.12" width="4.58" height="37.25"/><rect class="cls-1" x="75.57" width="6.87" height="37.25"/><rect class="cls-1" x="89.31" width="2.29" height="37.25"/><rect class="cls-1" x="93.89" width="4.58" height="37.25"/><rect class="cls-1" x="100.76" width="4.58" height="37.25"/><rect class="cls-1" x="114.5" width="2.29" height="37.25"/><rect class="cls-1" x="119.08" width="2.29" height="37.25"/><rect class="cls-1" x="125.95" width="2.29" height="37.25"/><rect class="cls-1" x="135.11" width="6.87" height="37.25"/><rect class="cls-1" x="144.27" width="4.58" height="37.25"/><rect class="cls-1" x="151.14" width="4.58" height="37.25"/><rect class="cls-1" x="162.59" width="6.87" height="37.25"/><rect class="cls-1" x="171.75" width="2.29" height="37.25"/><rect class="cls-1" x="176.33" width="4.58" height="37.25"/><rect class="cls-1" x="184.99" width="2.29" height="37.25"/><rect class="cls-1" x="189.57" width="4.58" height="37.25"/><rect class="cls-1" x="196.45" width="4.58" height="37.25"/><rect class="cls-1" x="210.19" width="2.29" height="37.25"/><rect class="cls-1" x="214.77" width="2.29" height="37.25"/><rect class="cls-1" x="221.63" width="2.29" height="37.25"/><rect class="cls-1" x="230.79" width="6.87" height="37.25"/><rect class="cls-1" x="239.95" width="4.58" height="37.25"/><rect class="cls-1" x="246.82" width="4.58" height="37.25"/><rect class="cls-1" x="258.27" width="6.87" height="37.25"/><rect class="cls-1" x="267.43" width="2.29" height="37.25"/><rect class="cls-1" x="272.01" width="4.58" height="43.03"/></g></g></svg>