<?xml version="1.0" encoding="UTF-8" standalone="no"?>
<!-- Generator: Adobe Illustrator 25.4.1, SVG Export Plug-In . SVG Version: 6.00 Build 0)  -->

<svg
   xmlns:dc="http://purl.org/dc/elements/1.1/"
   xmlns:cc="http://creativecommons.org/ns#"
   xmlns:rdf="http://www.w3.org/1999/02/22-rdf-syntax-ns#"
   xmlns:svg="http://www.w3.org/2000/svg"
   xmlns="http://www.w3.org/2000/svg"
   xmlns:sodipodi="http://sodipodi.sourceforge.net/DTD/sodipodi-0.dtd"
   xmlns:inkscape="http://www.inkscape.org/namespaces/inkscape"
   version="1.1"
   x="0px"
   y="0px"
   viewBox="0 0 119.275 122.19999"
   enable-background="new 0 0 327.7 327.7"
   xml:space="preserve"
   id="svg92"
   sodipodi:docname="deals.svg"
   width="119.275"
   height="122.2"
   inkscape:version="0.92.5 (2060ec1f9f, 2020-04-08)"><metadata
   id="metadata98"><rdf:RDF><cc:Work
       rdf:about=""><dc:format>image/svg+xml</dc:format><dc:type
         rdf:resource="http://purl.org/dc/dcmitype/StillImage" /></cc:Work></rdf:RDF></metadata><defs
   id="defs96" /><sodipodi:namedview
   pagecolor="#ffffff"
   bordercolor="#666666"
   borderopacity="1"
   objecttolerance="10"
   gridtolerance="10"
   guidetolerance="10"
   inkscape:pageopacity="0"
   inkscape:pageshadow="2"
   inkscape:window-width="870"
   inkscape:window-height="480"
   id="namedview94"
   showgrid="false"
   inkscape:zoom="0.72017086"
   inkscape:cx="45.950006"
   inkscape:cy="22.349994"
   inkscape:window-x="0"
   inkscape:window-y="0"
   inkscape:window-maximized="0"
   inkscape:current-layer="g89" />
<g
   id="Layer_3"
   transform="translate(-117.9,-64)">
</g>
<g
   id="Layer_1"
   transform="translate(-117.9,-64)">
	<g
   id="g89">
		<g
   id="g5">
			
		</g>
		
		<g
   id="g87">
			<g
   id="g25">
				<path
   d="m 197.1,99.8 -7.6,7.6 -11.3,11.3 -7.8,7.8 -9.9,9.9 -7.8,7.8 -1.7,1.7 1.8,1.8 66.8,-66.8 v 0 l -1.8,-1.8 -7.1,7.1 V 66.6 c 0,-0.7 -0.3,-1.4 -0.8,-1.8 -0.5,-0.5 -1.2,-0.8 -1.8,-0.8 h -87.6 c -0.7,0 -1.4,0.3 -1.8,0.8 -0.5,0.5 -0.8,1.2 -0.8,1.8 v 117 c 0,0.7 0.3,1.4 0.8,1.8 0.5,0.5 1.2,0.8 1.8,0.8 h 71.6 c 0.7,0 1.4,-0.3 1.8,-0.8 l 8,-8 v 0 l 7.9,-7.9 c 0.5,-0.5 0.8,-1.2 0.8,-1.8 v -60.2 l -5.2,5.2 v 49.8 h -16.6 c -0.7,0 -1.4,0.3 -1.8,0.8 -0.5,0.5 -0.8,1.2 -0.8,1.8 V 181 H 123.1 V 69.2 h 82.4 v 22.2 z m -5.6,67.9 h 13.9 l -13.9,13.4 z"
   id="path23"
   inkscape:connector-curvature="0"
   style="fill:#009e9b" />
			</g>
			<g
   id="g29">
				<rect
   x="134.8"
   y="82.599998"
   width="63.299999"
   height="7.5999999"
   id="rect27"
   style="fill:#79e6f2" />
			</g>
			<g
   id="g33">
				<polygon
   points="197.1,99.8 127.7,99.8 127.7,107.3 189.5,107.3 "
   id="polygon31"
   style="fill:#79e6f2" />
			</g>
			<g
   id="g37">
				<polygon
   points="178.3,118.6 127.9,118.6 127.9,126.4 170.4,126.4 "
   id="polygon35"
   style="fill:#79e6f2" />
			</g>
			<g
   id="g41">
				<polygon
   points="199.6,118.6 191.8,126.4 200.8,126.4 200.8,118.6 "
   id="polygon39"
   style="fill:#79e6f2" />
			</g>
			<g
   id="g45">
				<polygon
   points="181.9,136.3 174,144.2 200.8,144.2 200.8,136.3 "
   id="polygon43"
   style="fill:#79e6f2" />
			</g>
			<g
   id="g49">
				<polygon
   points="160.6,136.3 127.9,136.3 127.9,144.2 152.7,144.2 "
   id="polygon47"
   style="fill:#79e6f2" />
			</g>
			<g
   id="g53">
				<polygon
   points="146.4,154 127.9,154 127.9,161.9 142.5,161.9 142.8,161.4 "
   id="polygon51"
   style="fill:#79e6f2" />
			</g>
			<g
   id="g57">
				<path
   d="m 159.6,158.2 -7.5,3.7 h 30.6 V 154 h -18.5 l -2.5,2.5 v 0 0 l -1.8,-1.8 -0.7,-0.7 h -2 l 2.6,2.6 c 0.2,0.2 0.3,0.5 0.3,0.9 -0.1,0.3 -0.3,0.5 -0.5,0.7 z"
   id="path55"
   inkscape:connector-curvature="0"
   style="fill:#79e6f2" />
			</g>
			<g
   id="g61">
				<polygon
   points="191.5,181.1 205.4,167.7 191.5,167.7 "
   id="polygon59"
   style="fill:#009e9b" />
			</g>
			<g
   id="g65">
				<polygon
   points="195.7,122.5 191.8,126.4 "
   id="polygon63"
   style="fill:#009e9b" />
			</g>
			<g
   id="g69">
				
					<rect
   x="142.39999"
   y="114.6"
   transform="matrix(0.7071,-0.7071,0.7071,0.7071,-27.8844,168.6024)"
   width="94.5"
   height="6.6999998"
   id="rect67"
   style="fill:#79e6f2" />
			</g>
			<g
   id="g73">
				<polygon
   points="228.5,89.7 226.7,87.9 159.9,154.7 161.7,156.5 "
   id="polygon71"
   style="fill:#009e9b" />
			</g>
			<g
   id="g77">
				<path
   d="m 150.9,147.7 c -0.2,-0.2 -0.5,-0.3 -0.9,-0.3 -0.3,0.1 -0.6,0.2 -0.7,0.5 l -3,6.1 -3.6,7.3 3.4,3.4 5.9,-2.9 7.5,-3.7 c 0.3,-0.1 0.5,-0.4 0.5,-0.7 0,-0.3 0,-0.6 -0.3,-0.9 l -2.6,-2.6 z"
   id="path75"
   inkscape:connector-curvature="0"
   style="fill:#009e9b" />
			</g>
			<g
   id="g81">
				<path
   d="m 140.8,165.5 c -0.2,0.4 -0.1,0.8 0.2,1.1 0.3,0.3 0.7,0.4 1.1,0.2 l 4.1,-2 -3.4,-3.4 -0.3,0.5 z"
   id="path79"
   inkscape:connector-curvature="0"
   style="fill:#009e9b" />
			</g>
			<g
   id="g85">
				<path
   d="m 224.3,72.6 -1.2,1.2 -2.1,2.1 -2.2,2.2 10.7,10.7 2.2,-2.2 2.1,-2.1 1.2,-1.2 c 2.9,-2.9 2.9,-7.7 0,-10.7 -3,-3 -7.7,-3 -10.7,0 z"
   id="path83"
   inkscape:connector-curvature="0"
   style="fill:#009e9b" />
			</g>
		</g>
	</g>
</g>
</svg>