<?xml version="1.0" encoding="UTF-8" standalone="no"?>
<!-- Generator: Adobe Illustrator 25.4.1, SVG Export Plug-In . SVG Version: 6.00 Build 0)  -->

<svg
   xmlns:dc="http://purl.org/dc/elements/1.1/"
   xmlns:cc="http://creativecommons.org/ns#"
   xmlns:rdf="http://www.w3.org/1999/02/22-rdf-syntax-ns#"
   xmlns:svg="http://www.w3.org/2000/svg"
   xmlns="http://www.w3.org/2000/svg"
   xmlns:sodipodi="http://sodipodi.sourceforge.net/DTD/sodipodi-0.dtd"
   xmlns:inkscape="http://www.inkscape.org/namespaces/inkscape"
   version="1.1"
   x="0px"
   y="0px"
   viewBox="0 0 158 187.59644"
   enable-background="new 0 0 1260.5 324.3"
   xml:space="preserve"
   id="svg76"
   sodipodi:docname="debts.svg"
   width="158"
   height="187.59644"
   inkscape:version="0.92.5 (2060ec1f9f, 2020-04-08)"><metadata
   id="metadata82"><rdf:RDF><cc:Work
       rdf:about=""><dc:format>image/svg+xml</dc:format><dc:type
         rdf:resource="http://purl.org/dc/dcmitype/StillImage" /></cc:Work></rdf:RDF></metadata><defs
   id="defs80" /><sodipodi:namedview
   pagecolor="#ffffff"
   bordercolor="#666666"
   borderopacity="1"
   objecttolerance="10"
   gridtolerance="10"
   guidetolerance="10"
   inkscape:pageopacity="0"
   inkscape:pageshadow="2"
   inkscape:window-width="1600"
   inkscape:window-height="855"
   id="namedview78"
   showgrid="false"
   inkscape:zoom="0.30464102"
   inkscape:cx="474.55"
   inkscape:cy="90.550006"
   inkscape:window-x="1366"
   inkscape:window-y="0"
   inkscape:window-maximized="1"
   inkscape:current-layer="Layer_1" />
<g
   id="Layer_3"
   transform="translate(-155.7,-65.103557)">
</g>
<g
   id="Layer_1"
   transform="translate(-155.7,-65.103557)">
	<g
   id="g5">
		
	</g>
	
	<g
   id="g73">
		<g
   id="g51">
			<path
   d="M 307.6,120.1 H 292.3 177.2 161.6 c -3.2,0 -5.9,2.7 -5.9,6 v 15.5 34.5 15.6 c 0,3.3 2.7,5.9 5.9,5.9 h 15.6 115.2 15.3 c 3.3,0 6,-2.6 6,-5.9 v -15.6 -34.5 -15.5 c -0.1,-3.3 -2.8,-6 -6.1,-6 z m -3,54.2 c 0,0 -0.1,0 -0.1,0 -1,0.3 -1.9,0.7 -2.9,1.2 -0.2,0.1 -0.4,0.2 -0.6,0.3 -0.8,0.5 -1.7,1 -2.5,1.6 -0.2,0.1 -0.3,0.2 -0.5,0.3 -0.8,0.6 -1.6,1.3 -2.3,1.9 0,0 0,0.1 -0.1,0.1 -0.7,0.8 -1.3,1.5 -1.9,2.4 -0.1,0.2 -0.3,0.3 -0.4,0.4 -0.6,0.8 -1.1,1.7 -1.5,2.6 -0.1,0.2 -0.2,0.3 -0.3,0.5 -0.5,0.9 -0.8,1.9 -1.1,2.9 0,0 0,0 0,0.1 -0.3,0.9 -0.5,2 -0.7,3 0,0.2 0,0.3 0,0.4 H 179.9 c 0,-0.1 -0.1,-0.3 -0.1,-0.4 -0.2,-1 -0.4,-2 -0.7,-3 0,0 0,0 0,-0.1 -0.3,-1 -0.7,-1.9 -1.2,-3 -0.1,-0.2 -0.1,-0.3 -0.3,-0.5 -0.5,-0.8 -1,-1.8 -1.6,-2.6 -0.1,-0.1 -0.2,-0.3 -0.3,-0.4 -1.2,-1.7 -2.7,-3.1 -4.4,-4.4 -0.2,-0.1 -0.3,-0.2 -0.4,-0.3 -0.8,-0.5 -1.7,-1.1 -2.6,-1.5 -0.2,-0.2 -0.3,-0.2 -0.5,-0.3 -1,-0.4 -1.9,-0.8 -3,-1.2 0,0 0,0 -0.1,-0.1 -1,-0.3 -2,-0.5 -3.1,-0.6 -0.1,-0.1 -0.2,-0.1 -0.4,-0.1 v -29.2 c 0.2,0 0.3,-0.1 0.4,-0.1 1.1,-0.2 2.1,-0.3 3.1,-0.7 0,0 0.1,0 0.1,-0.1 1,-0.3 2,-0.7 3,-1.1 0.2,-0.1 0.3,-0.2 0.5,-0.3 0.9,-0.5 1.8,-1 2.6,-1.6 0.2,-0.1 0.3,-0.3 0.5,-0.3 1.6,-1.3 3.2,-2.8 4.4,-4.5 0.1,-0.2 0.3,-0.3 0.3,-0.4 0.6,-0.8 1.1,-1.7 1.6,-2.6 0.1,-0.2 0.2,-0.3 0.3,-0.5 0.5,-0.9 0.9,-1.9 1.2,-2.9 0,0 0,0 0,-0.1 0.3,-1 0.5,-2 0.7,-3 0,-0.2 0,-0.3 0.1,-0.4 h 109.9 c 0,0.2 0,0.3 0,0.4 0.2,1 0.4,2 0.7,3 0,0 0,0 0,0.1 0.3,0.9 0.7,1.8 1.1,2.9 0.1,0.2 0.2,0.3 0.3,0.5 0.5,0.8 1,1.7 1.5,2.5 0.1,0.2 0.3,0.3 0.4,0.5 0.6,0.8 1.2,1.6 1.9,2.3 0,0.1 0,0.1 0,0.1 0.7,0.8 1.5,1.3 2.3,2 0.1,0.1 0.3,0.2 0.5,0.3 0.8,0.6 1.6,1.1 2.5,1.5 0.2,0.1 0.4,0.2 0.6,0.3 0.9,0.5 1.9,0.9 2.9,1.3 0,0 0.1,0 0.1,0 1,0.3 2,0.5 3,0.7 0.1,0.1 0.3,0.1 0.3,0.1 v 29.3 c -0.1,0 -0.2,0.1 -0.3,0.1 -1.1,0.2 -2.2,0.4 -3.1,0.7 z m 3.3,-48.2 v 12.4 c 0,-0.1 0,-0.1 -0.1,-0.1 -0.7,-0.1 -1.3,-0.3 -2,-0.5 -0.1,-0.1 -0.3,-0.2 -0.5,-0.2 -0.6,-0.3 -1.2,-0.5 -1.7,-0.8 0,0 -0.1,0 -0.2,-0.1 -0.6,-0.3 -1.2,-0.7 -1.7,-1.1 -0.1,-0.1 -0.3,-0.2 -0.4,-0.3 -0.5,-0.4 -1.1,-0.8 -1.6,-1.4 v 0 c -0.5,-0.5 -0.9,-1 -1.3,-1.5 -0.1,-0.2 -0.2,-0.3 -0.3,-0.4 -0.4,-0.6 -0.8,-1.2 -1.1,-1.8 -0.1,-0.1 -0.1,-0.2 -0.1,-0.2 -0.3,-0.6 -0.6,-1.2 -0.8,-1.8 0,-0.2 -0.1,-0.3 -0.2,-0.4 -0.2,-0.7 -0.4,-1.3 -0.5,-2 0,0 0,-0.1 0,-0.2 h 12.1 c 0.3,0.1 0.4,0.2 0.4,0.4 z m -146.3,-0.3 h 12.5 c 0,0.1 0,0.2 0,0.2 -0.1,0.7 -0.3,1.3 -0.5,2 -0.1,0.2 -0.1,0.3 -0.2,0.4 -0.3,0.6 -0.5,1.3 -0.8,1.8 -0.1,0.1 -0.1,0.2 -0.1,0.3 -0.3,0.6 -0.7,1.2 -1.1,1.8 -0.1,0.2 -0.2,0.3 -0.3,0.4 -0.9,1.1 -1.8,2.1 -3,3 -0.1,0.1 -0.3,0.2 -0.4,0.3 -0.6,0.4 -1.1,0.8 -1.8,1.1 -0.1,0.1 -0.2,0.2 -0.2,0.2 -0.6,0.3 -1.2,0.5 -1.9,0.8 -0.1,0.1 -0.3,0.1 -0.4,0.2 -0.7,0.3 -1.4,0.4 -2.1,0.5 0,0 -0.1,0 -0.2,0 v -12.4 c 0.2,-0.5 0.4,-0.6 0.5,-0.6 z m -0.3,65.9 v -12.5 c 0.1,0 0.1,0 0.2,0 0.7,0.2 1.4,0.3 2,0.5 0.2,0.1 0.3,0.2 0.5,0.2 0.6,0.3 1.2,0.5 1.8,0.8 0,0 0.1,0 0.2,0.1 0.6,0.3 1.2,0.7 1.8,1.1 0.1,0.1 0.3,0.2 0.4,0.3 1.1,0.8 2.1,1.9 3,2.9 0.1,0.2 0.2,0.3 0.3,0.4 0.4,0.6 0.8,1.2 1.1,1.8 0,0.1 0,0.2 0.1,0.3 0.3,0.6 0.5,1.2 0.8,1.8 0,0.2 0.1,0.3 0.2,0.4 0.2,0.7 0.4,1.3 0.5,2 0,0.1 0,0.1 0,0.2 h -12.5 c -0.2,0 -0.4,-0.2 -0.4,-0.3 z m 146.3,0.3 h -12.1 c 0,-0.1 0,-0.1 0,-0.1 0.2,-0.8 0.3,-1.4 0.5,-2 0,-0.2 0.1,-0.3 0.2,-0.5 0.2,-0.6 0.5,-1.1 0.8,-1.7 0,-0.1 0,-0.2 0.1,-0.3 0.3,-0.6 0.7,-1.2 1.1,-1.8 0.1,-0.1 0.2,-0.2 0.3,-0.3 0.4,-0.5 0.8,-1 1.3,-1.5 0,0 0,0 0,-0.1 0.5,-0.4 1,-0.9 1.6,-1.3 0.1,-0.1 0.3,-0.2 0.4,-0.3 0.6,-0.4 1.1,-0.8 1.7,-1.2 0,0 0.1,0 0.2,-0.1 0.6,-0.3 1.1,-0.6 1.7,-0.8 0.2,-0.1 0.3,-0.2 0.5,-0.2 0.7,-0.3 1.3,-0.4 2,-0.6 0,0 0,0 0,0 v 12.4 c 0,0.2 -0.1,0.4 -0.3,0.4 z"
   id="path49"
   inkscape:connector-curvature="0"
   style="fill:#009e9b" />
		</g>
		<g
   id="g55">
			<path
   d="m 234.7,143.7 c 3.9,0 7.1,2.8 7.1,6.2 0,1.5 1.3,2.8 2.9,2.8 1.6,0 2.8,-1.3 2.8,-2.8 0,-5.6 -4.3,-10.4 -9.9,-11.6 v -2.5 c 0,-1.5 -1.3,-2.8 -2.8,-2.8 -1.5,0 -2.8,1.3 -2.8,2.8 v 2.5 c -5.7,1.2 -10,5.9 -10,11.6 0,5.7 3.3,11.9 12.8,11.9 4.7,0 7.1,2 7.1,6.2 0,3.4 -3.2,6.2 -7.1,6.2 -3.9,0 -7.1,-2.8 -7.1,-6.2 0,-1.6 -1.3,-2.9 -2.8,-2.9 -1.6,0 -2.8,1.3 -2.8,2.9 0,5.7 4.3,10.3 10,11.6 v 2.4 c 0,1.5 1.3,2.9 2.8,2.9 1.5,0 2.8,-1.3 2.8,-2.9 v -2.4 c 5.7,-1.3 9.9,-5.9 9.9,-11.6 0,-5.7 -3.4,-11.9 -12.8,-11.9 -4.7,0 -7.1,-2.1 -7.1,-6.2 -0.2,-3.5 3,-6.2 7,-6.2 z"
   id="path53"
   inkscape:connector-curvature="0"
   style="fill:#009e9b" />
		</g>
		<g
   id="g59">
			<path
   d="m 278.8,147.5 h -4.1 c -5.1,0 -9.3,4.1 -9.3,9.3 v 4.1 c 0,5.1 4.2,9.4 9.3,9.4 h 4.1 c 5.1,0 9.3,-4.2 9.3,-9.4 v -4.1 c 0,-5.1 -4.2,-9.3 -9.3,-9.3 z m 3.6,13.4 c 0,2 -1.6,3.6 -3.6,3.6 h -4.1 c -2,0 -3.6,-1.6 -3.6,-3.6 v -4.1 c 0,-1.9 1.6,-3.6 3.6,-3.6 h 4.1 c 2,0 3.6,1.7 3.6,3.6 z"
   id="path57"
   inkscape:connector-curvature="0"
   style="fill:#009e9b" />
		</g>
		<g
   id="g63">
			<path
   d="m 194.7,147.5 h -4.2 c -5.1,0 -9.3,4.1 -9.3,9.3 v 4.1 c 0,5.1 4.2,9.4 9.3,9.4 h 4.2 c 5.1,0 9.3,-4.2 9.3,-9.4 v -4.1 c 0,-5.1 -4.2,-9.3 -9.3,-9.3 z m 3.6,13.4 c 0,2 -1.6,3.6 -3.6,3.6 h -4.2 c -1.9,0 -3.6,-1.6 -3.6,-3.6 v -4.1 c 0,-1.9 1.6,-3.6 3.6,-3.6 h 4.2 c 2,0 3.6,1.7 3.6,3.6 z"
   id="path61"
   inkscape:connector-curvature="0"
   style="fill:#009e9b" />
		</g>
		<g
   id="g67">
			<path
   d="m 188.1,103.8 c 0.4,-0.2 37.3,-20.8 62,-7.3 l -8.2,8.2 c -0.8,0.8 -1.1,2.1 -0.6,3.1 0.5,1.1 1.5,1.8 2.7,1.8 h 38.8 c 1.6,0 2.8,-1.3 2.8,-2.9 V 68 c 0,-1.2 -0.7,-2.2 -1.7,-2.7 -1.1,-0.4 -2.3,-0.2 -3.1,0.7 l -9.4,9.4 c -10.1,-3.6 -59.6,-18.6 -86.9,24.4 -0.7,1.1 -0.6,2.5 0.3,3.5 0.7,1 2.2,1.1 3.3,0.5 z m 82.7,-22.5 c 1.1,0.4 2.3,0.3 3.1,-0.6 l 5.9,-5.9 v 29.1 h -29.1 l 5.9,-5.9 c 0.6,-0.6 0.9,-1.4 0.8,-2.3 -0.1,-0.8 -0.5,-1.6 -1.2,-2.1 -19.3,-13.4 -45.7,-5.9 -60.2,0.1 28.6,-31.3 72.8,-13.2 74.8,-12.4 z"
   id="path65"
   inkscape:connector-curvature="0"
   style="fill:#79e6f2" />
		</g>
		<g
   id="g71">
			<path
   d="m 281.2,214 c -0.4,0.3 -37.3,20.9 -62,7.3 l 8.2,-8.2 c 0.8,-0.8 1.1,-2 0.6,-3.1 -0.5,-1 -1.5,-1.8 -2.7,-1.8 h -38.8 c -1.6,0 -2.8,1.3 -2.8,2.9 v 38.8 c 0,1.1 0.7,2.1 1.7,2.6 0.4,0.2 0.7,0.2 1.1,0.2 0.7,0 1.5,-0.3 2,-0.8 l 9.4,-9.4 c 10.1,3.6 59.6,18.6 87,-24.5 0.7,-1.1 0.5,-2.5 -0.3,-3.5 -0.8,-1 -2.3,-1.2 -3.4,-0.5 z m -82.7,22.4 c -1.1,-0.4 -2.3,-0.2 -3.1,0.7 l -5.9,5.9 v -29.1 h 29.1 l -5.9,5.8 c -0.6,0.7 -0.9,1.4 -0.8,2.3 0,0.8 0.5,1.6 1.2,2.1 19.4,13.5 45.7,5.9 60.3,-0.1 -28.7,31.4 -72.9,13.3 -74.9,12.4 z"
   id="path69"
   inkscape:connector-curvature="0"
   style="fill:#79e6f2" />
		</g>
	</g>
</g>
</svg>