<svg xmlns="http://www.w3.org/2000/svg" viewBox="0 0 135.58 135.58"><defs><style>.cls-1{fill:none;stroke:#a9b0d9;stroke-miterlimit:10;stroke-width:2px;}.cls-2{fill:#004d76;}.cls-3{fill:#009e9b;}</style></defs><g id="Layer_2" data-name="Layer 2"><g id="Layer_1-2" data-name="Layer 1"><rect class="cls-1" x="1" y="1" width="133.58" height="133.58" rx="17.36"/><path class="cls-2" d="M81.43,45.21l-2.25,2.25,28,28a5.55,5.55,0,0,1,.47,7.54,5.22,5.22,0,0,1-3.79,1.78A5.37,5.37,0,0,1,100,83.24l0,0L79.42,62.64a1.58,1.58,0,0,0-2.23,2.25L97.77,85.45l3.16,3.18a5.54,5.54,0,0,1,.47,7.54,5.08,5.08,0,0,1-3.79,1.73,5.19,5.19,0,0,1-3.86-1.5v0l-24-24a1.59,1.59,0,0,0-2.23,0,1.61,1.61,0,0,0,0,2.25l24,24h0a5.29,5.29,0,0,1,1.5,4.25,5.14,5.14,0,0,1-2.34,3.89,5.52,5.52,0,0,1-6.81-.84l-4.38-4.35a.84.84,0,0,0-.14-.19h0L60,82.07a1.57,1.57,0,1,0-2.22,2.21L77.1,103.62h0a5.38,5.38,0,0,1,1.52,4.26,5.32,5.32,0,0,1-2.36,3.89,5.55,5.55,0,0,1-6.82-.85L26.28,67.74a25.41,25.41,0,0,1,0-35.87h0a26.32,26.32,0,0,1,37.28,0l2.33,2.34L68.13,32l-2.32-2.34a29.51,29.51,0,0,0-41.73,0h0a28.58,28.58,0,0,0,0,40.37l3,3,2.25,2.24,7.46,7.5L39,84.93l7.47,7.49,2.23,2.2,7.46,7.5,2.25,2.25,7.48,7.44L68.22,114a8.88,8.88,0,0,0,5.27,1.82,8.19,8.19,0,0,0,4.57-1.4,8.51,8.51,0,0,0,3.7-6.14,8.43,8.43,0,0,0,14.42-5.1,8.16,8.16,0,0,0-.07-2.16c.52.05,1,.1,1.6.1a8.15,8.15,0,0,0,6-2.82,8.53,8.53,0,0,0,.66-10.39A8.24,8.24,0,0,0,110,85.11a8.6,8.6,0,0,0-.58-11.84L107,70.78Z"/><path class="cls-3" d="M111.52,70.65a28.53,28.53,0,0,0,0-40.33,29.56,29.56,0,0,0-40-1.6,2.14,2.14,0,0,0-.49.34l-1.22,1.21,0,.05L68.13,32l-2.22,2.25L56.17,43.9A9.57,9.57,0,0,0,54.78,56a9.4,9.4,0,0,0,6.93,4.12,5.37,5.37,0,0,0,.89,0,9.38,9.38,0,0,0,6.65-2.76l9.93-9.93,2.25-2.25,1.8-1.82a1.51,1.51,0,0,0,0-2.21,1.58,1.58,0,0,0-2.22,0l-14,14a6.24,6.24,0,0,1-9.6-1,6.45,6.45,0,0,1,1-8.05L72,32.52a26.38,26.38,0,0,1,37.24,0,25.43,25.43,0,0,1,0,35.92L107,70.78l2.49,2.49-.26-.28Z"/><path class="cls-3" d="M63.79,113.92a5.18,5.18,0,0,1-3.88,1.54,5.28,5.28,0,0,1-3.79-1.73,5.56,5.56,0,0,1,.42-7.49l1.89-1.87-2.25-2.25-1.82,1.82-.07.1-3.37,3.37a5.59,5.59,0,0,1-7.54.47,5.19,5.19,0,0,1-1.76-3.8,5.25,5.25,0,0,1,1.55-3.88l5.55-5.58-2.23-2.2L40.94,98a5.45,5.45,0,0,1-4.26,1.49,5.3,5.3,0,0,1-3.89-2.34,5.48,5.48,0,0,1,.87-6.84l4.61-4.63.07-.1.68-.65-2.23-2.2-.72.7a5.51,5.51,0,0,1-6.79.8,5.3,5.3,0,0,1-.82-8.15l.87-.84L27.08,73l-.85.84a8.47,8.47,0,0,0,1.29,13,8.55,8.55,0,0,0,3.77,1.36,8.59,8.59,0,0,0-1.12,10.72,8.42,8.42,0,0,0,6.21,3.7,11.54,11.54,0,0,0,2.2,0,8,8,0,0,0-.12,1.54,8.46,8.46,0,0,0,2.81,6.09,8.67,8.67,0,0,0,10.47.56,8.14,8.14,0,0,0,2,5.06,8.29,8.29,0,0,0,6.06,2.76h.21a8.42,8.42,0,0,0,6-2.43l2.2-2.2-2.32-2.16Z"/></g></g></svg>