<?xml version="1.0" encoding="UTF-8" standalone="no"?>
<!-- Generator: Adobe Illustrator 19.1.0, SVG Export Plug-In . SVG Version: 6.00 Build 0)  -->

<svg
   xmlns:dc="http://purl.org/dc/elements/1.1/"
   xmlns:cc="http://creativecommons.org/ns#"
   xmlns:rdf="http://www.w3.org/1999/02/22-rdf-syntax-ns#"
   xmlns:svg="http://www.w3.org/2000/svg"
   xmlns="http://www.w3.org/2000/svg"
   xmlns:sodipodi="http://sodipodi.sourceforge.net/DTD/sodipodi-0.dtd"
   xmlns:inkscape="http://www.inkscape.org/namespaces/inkscape"
   version="1.1"
   id="Capa_1"
   x="0px"
   y="0px"
   viewBox="0 0 449.71077 484.2"
   xml:space="preserve"
   sodipodi:docname="logout.svg"
   width="449.71078"
   height="484.20001"
   inkscape:version="0.92.5 (2060ec1f9f, 2020-04-08)"><metadata
   id="metadata45"><rdf:RDF><cc:Work
       rdf:about=""><dc:format>image/svg+xml</dc:format><dc:type
         rdf:resource="http://purl.org/dc/dcmitype/StillImage" /><dc:title></dc:title></cc:Work></rdf:RDF></metadata><defs
   id="defs43" /><sodipodi:namedview
   pagecolor="#ffffff"
   bordercolor="#666666"
   borderopacity="1"
   objecttolerance="10"
   gridtolerance="10"
   guidetolerance="10"
   inkscape:pageopacity="0"
   inkscape:pageshadow="2"
   inkscape:window-width="1600"
   inkscape:window-height="855"
   id="namedview41"
   showgrid="false"
   inkscape:zoom="1.0016978"
   inkscape:cx="225.98887"
   inkscape:cy="215.04247"
   inkscape:window-x="1366"
   inkscape:window-y="0"
   inkscape:window-maximized="1"
   inkscape:current-layer="g6" />
<g
   id="g8"
   transform="translate(-10.719,6.5)">
	<g
   id="g6">
		<path
   d="m 227.619,444.2 h -122.9 c -33.4,0 -60.5,-27.2 -60.5,-60.5 V 87.5 c 0,-33.4 27.2,-60.5 60.5,-60.5 h 124.9 c 7.5,0 13.5,-6 13.5,-13.5 0,-7.5 -6,-13.5 -13.5,-13.5 h -124.9 c -48.3,0 -87.5,39.3 -87.5,87.5 v 296.2 c 0,48.3 39.3,87.5 87.5,87.5 h 122.9 c 7.5,0 13.5,-6 13.5,-13.5 0,-7.5 -6.1,-13.5 -13.5,-13.5 z"
   id="path2"
   style="fill:#79e6f2;fill-opacity:1;stroke:#79e6f2;stroke-width:13;stroke-linejoin:round;stroke-miterlimit:4;stroke-dasharray:none;stroke-opacity:1"
   inkscape:connector-curvature="0" />
		<path
   d="m 450.019,226.1 -85.8,-85.8 c -5.3,-5.3 -13.8,-5.3 -19.1,0 -5.3,5.3 -5.3,13.8 0,19.1 l 62.8,62.8 h -273.9 c -7.5,0 -13.5,6 -13.5,13.5 0,7.5 6,13.5 13.5,13.5 h 273.9 l -62.8,62.8 c -5.3,5.3 -5.3,13.8 0,19.1 2.6,2.6 6.1,4 9.5,4 3.4,0 6.9,-1.3 9.5,-4 l 85.8,-85.8 c 5.4,-5.4 5.4,-14 0.1,-19.2 z"
   id="path4"
   style="fill:#009e9b;fill-opacity:1;stroke:#009e9b;stroke-width:13;stroke-miterlimit:4;stroke-dasharray:none;stroke-opacity:1"
   inkscape:connector-curvature="0" />
	</g>
</g>
<g
   id="g10"
   transform="translate(-10.719,6.5)">
</g>
<g
   id="g12"
   transform="translate(-10.719,6.5)">
</g>
<g
   id="g14"
   transform="translate(-10.719,6.5)">
</g>
<g
   id="g16"
   transform="translate(-10.719,6.5)">
</g>
<g
   id="g18"
   transform="translate(-10.719,6.5)">
</g>
<g
   id="g20"
   transform="translate(-10.719,6.5)">
</g>
<g
   id="g22"
   transform="translate(-10.719,6.5)">
</g>
<g
   id="g24"
   transform="translate(-10.719,6.5)">
</g>
<g
   id="g26"
   transform="translate(-10.719,6.5)">
</g>
<g
   id="g28"
   transform="translate(-10.719,6.5)">
</g>
<g
   id="g30"
   transform="translate(-10.719,6.5)">
</g>
<g
   id="g32"
   transform="translate(-10.719,6.5)">
</g>
<g
   id="g34"
   transform="translate(-10.719,6.5)">
</g>
<g
   id="g36"
   transform="translate(-10.719,6.5)">
</g>
<g
   id="g38"
   transform="translate(-10.719,6.5)">
</g>
</svg>