<?xml version="1.0" encoding="UTF-8" standalone="no"?>
<!-- Generator: Adobe Illustrator 26.0.2, SVG Export Plug-In . SVG Version: 6.00 Build 0)  -->

<svg
   xmlns:dc="http://purl.org/dc/elements/1.1/"
   xmlns:cc="http://creativecommons.org/ns#"
   xmlns:rdf="http://www.w3.org/1999/02/22-rdf-syntax-ns#"
   xmlns:svg="http://www.w3.org/2000/svg"
   xmlns="http://www.w3.org/2000/svg"
   xmlns:sodipodi="http://sodipodi.sourceforge.net/DTD/sodipodi-0.dtd"
   xmlns:inkscape="http://www.inkscape.org/namespaces/inkscape"
   version="1.1"
   id="Layer_1"
   x="0px"
   y="0px"
   viewBox="0 0 47.7 47.7"
   style="enable-background:new 0 0 47.7 47.7;"
   xml:space="preserve"
   sodipodi:docname="mais_alt.svg"
   inkscape:version="0.92.5 (2060ec1f9f, 2020-04-08)"><metadata
   id="metadata11"><rdf:RDF><cc:Work
       rdf:about=""><dc:format>image/svg+xml</dc:format><dc:type
         rdf:resource="http://purl.org/dc/dcmitype/StillImage" /><dc:title></dc:title></cc:Work></rdf:RDF></metadata><defs
   id="defs9" /><sodipodi:namedview
   pagecolor="#ffffff"
   bordercolor="#666666"
   borderopacity="1"
   objecttolerance="10"
   gridtolerance="10"
   guidetolerance="10"
   inkscape:pageopacity="0"
   inkscape:pageshadow="2"
   inkscape:window-width="1366"
   inkscape:window-height="724"
   id="namedview7"
   showgrid="false"
   inkscape:zoom="4.947589"
   inkscape:cx="23.85"
   inkscape:cy="23.85"
   inkscape:window-x="0"
   inkscape:window-y="0"
   inkscape:window-maximized="1"
   inkscape:current-layer="Layer_1" />
<style
   type="text/css"
   id="style2">
	.st0{fill:#AAB1DA;}
</style>
<path
   class="st0"
   d="M39,16.1h-7.7V8.4C31.3,4.3,28,1,23.9,1h0c-4.1,0-7.4,3.3-7.4,7.4v7.7H8.8c-4.1,0-7.4,3.3-7.4,7.4  c0,4.1,3.3,7.4,7.4,7.4h7.7v7.7c0,4.1,3.3,7.4,7.4,7.4h0c4.1,0,7.4-3.3,7.4-7.4v-7.7H39c4.1,0,7.4-3.3,7.4-7.4  C46.4,19.4,43.1,16.1,39,16.1z"
   id="path4"
   style="fill:#ffffff;fill-opacity:0" />
</svg>