<?xml version="1.0" encoding="utf-8"?>
<!-- Generator: Adobe Illustrator 26.0.2, SVG Export Plug-In . SVG Version: 6.00 Build 0)  -->
<svg version="1.1" id="Layer_1" xmlns="http://www.w3.org/2000/svg" xmlns:xlink="http://www.w3.org/1999/xlink" x="0px" y="0px"
	 viewBox="0 0 47.7 47.7" style="enable-background:new 0 0 47.7 47.7;" xml:space="preserve">
<style type="text/css">
	.st0{fill:#AAB1DA;}
</style>
<path class="st0" d="M39,16.1h-7.7V8.4C31.3,4.3,28,1,23.9,1h0c-4.1,0-7.4,3.3-7.4,7.4v7.7H8.8c-4.1,0-7.4,3.3-7.4,7.4
	c0,4.1,3.3,7.4,7.4,7.4h7.7v7.7c0,4.1,3.3,7.4,7.4,7.4h0c4.1,0,7.4-3.3,7.4-7.4v-7.7H39c4.1,0,7.4-3.3,7.4-7.4
	C46.4,19.4,43.1,16.1,39,16.1z"/>
</svg>
