<svg xmlns="http://www.w3.org/2000/svg" viewBox="0 0 135.58 135.58"><defs><style>.cls-1{fill:none;stroke:#a9b0d9;stroke-miterlimit:10;stroke-width:2px;}.cls-2{fill:#009e9b;}.cls-3{fill:#00679c;}.cls-4{fill:#4f3d97;}</style></defs><g id="Layer_2" data-name="Layer 2"><g id="Layer_1-2" data-name="Layer 1"><rect class="cls-1" x="1" y="1" width="133.58" height="133.58" rx="17.36"/><path class="cls-2" d="M26.86,54.35A7.13,7.13,0,1,0,34,47.26a7.14,7.14,0,0,0-7.12,7.09m11.06,0A3.94,3.94,0,1,1,34,50.42a3.92,3.92,0,0,1,3.94,3.93"/><path class="cls-2" d="M82.38,89.78a1.57,1.57,0,1,0-3.14,0,1.57,1.57,0,0,0,3.14,0"/><path class="cls-2" d="M90.3,89.78a1.45,1.45,0,0,0-.47-1.13,1.63,1.63,0,0,0-1.12-.47,1.53,1.53,0,0,0-1.08.47,1.58,1.58,0,0,0,1.08,2.69,1.62,1.62,0,0,0,1.12-.46,1.44,1.44,0,0,0,.47-1.1"/><path class="cls-2" d="M72.92,91.34A1.62,1.62,0,0,0,74,90.88a1.6,1.6,0,0,0,.47-1.13,1.57,1.57,0,0,0-1.59-1.57H53.85a1.57,1.57,0,0,0-1.59,1.57,1.59,1.59,0,0,0,1.59,1.59H72.92Z"/><path class="cls-2" d="M80.84,99.1a1.58,1.58,0,1,0,0-3.16h-27a1.58,1.58,0,1,0,0,3.16Z"/><path class="cls-3" d="M97.47,58.29H49.63a7.94,7.94,0,0,0-7.91,7.94V99.05A7.94,7.94,0,0,0,49.63,107h62.31a8,8,0,0,0,7.93-7.94V66.23a8,8,0,0,0-7.93-7.94H97.47Zm19.25,25.28V99.05a4.8,4.8,0,0,1-4.78,4.78H49.63a4.81,4.81,0,0,1-4.78-4.78V83.57Zm0-3.16H44.85V71.5h71.87Zm-4.78-18.95a4.79,4.79,0,0,1,4.78,4.77v2.11H44.85V66.23a4.8,4.8,0,0,1,4.78-4.77Z"/><path class="cls-2" d="M62.8,38.57c-7.4,0-13.4,7.07-13.4,15.78a18,18,0,0,0,.42,3.94h3.23a15.69,15.69,0,0,1-.51-3.94c0-7,4.59-12.62,10.26-12.62S73.06,47.4,73.06,54.35a15.24,15.24,0,0,1-.52,3.94h3.24a18,18,0,0,0,.42-3.94c0-8.71-6-15.78-13.4-15.78"/><path class="cls-4" d="M106.23,28.59H19.37a3.67,3.67,0,0,0-3.66,3.68V76.42a3.68,3.68,0,0,0,3.66,3.7H41.72V77H31.36c0-.42-.14-.84-.19-1.24a2.18,2.18,0,0,0-.09-.23,7.78,7.78,0,0,0-.23-1c-.05-.17-.14-.31-.19-.45a2.83,2.83,0,0,0-.28-.8c-.05-.16-.14-.3-.19-.44s-.24-.49-.33-.75-.18-.28-.28-.42a2.94,2.94,0,0,0-.42-.71,2.39,2.39,0,0,0-.23-.4l-.57-.7a.93.93,0,0,0-.23-.3,14,14,0,0,0-1.78-1.83L26,67.43c-.24-.19-.47-.35-.7-.52l-.42-.28c-.19-.14-.43-.28-.66-.42a2.93,2.93,0,0,1-.47-.24l-.7-.35a4.52,4.52,0,0,0-.47-.18c-.28-.12-.51-.21-.8-.31L21.38,65c-.33-.09-.65-.19-1-.26l-.28-.06a9.27,9.27,0,0,0-1.27-.19V44.24c.42-.05.85-.12,1.27-.19A2.26,2.26,0,0,1,20.4,44c.33-.07.65-.17,1-.26l.42-.14c.29-.09.52-.19.8-.3a4.84,4.84,0,0,0,.47-.21c.23-.1.47-.21.7-.33s.28-.17.47-.26a5.25,5.25,0,0,0,.66-.4l.42-.28.7-.51c.1-.1.23-.17.33-.26a12.18,12.18,0,0,0,1.78-1.81,1.2,1.2,0,0,0,.23-.3l.57-.7a2.05,2.05,0,0,0,.23-.4,2.94,2.94,0,0,0,.42-.71,4.73,4.73,0,0,0,.28-.44c.09-.23.24-.47.33-.73s.14-.3.19-.44a5.85,5.85,0,0,0,.33-.82,1.59,1.59,0,0,1,.14-.42,9.06,9.06,0,0,0,.23-1.06l.09-.21c0-.42.15-.82.19-1.24H94.47a8,8,0,0,0,.19,1.19c0,.1,0,.19,0,.26a8.32,8.32,0,0,0,.27,1,2.11,2.11,0,0,0,.14.45,6.66,6.66,0,0,0,.29.77c0,.14.14.3.18.47a4.69,4.69,0,0,1,.33.68c.1.16.19.33.28.49a5.27,5.27,0,0,0,.38.63,3.7,3.7,0,0,0,.28.44c.14.22.33.43.47.64s.18.26.28.37a8,8,0,0,0,.75.8l.14.16a8.74,8.74,0,0,0,.89.82c.09.1.23.19.33.28s.42.35.65.49l.42.29c.24.14.43.28.66.42a3.67,3.67,0,0,1,.47.26l.7.32a2,2,0,0,0,.47.22c.23.11.52.21.75.3l.42.14a6.47,6.47,0,0,0,1,.28l.24.07a8.51,8.51,0,0,0,1.21.21V58.29h3.19v-26a3.7,3.7,0,0,0-3.7-3.68M19,67.69a14.22,14.22,0,0,1,1.54.35l.1,0c.47.16.94.35,1.41.56a.82.82,0,0,1,.23.14,11.26,11.26,0,0,1,1.31.77l.24.19a10.2,10.2,0,0,1,2.2,2.2l.18.23a13.66,13.66,0,0,1,.8,1.29c.05.09.05.19.1.28a8.31,8.31,0,0,1,.56,1.38l0,.08a10.4,10.4,0,0,1,.38,1.56l0,.19h-8.8a.53.53,0,0,1-.52-.54V67.66Zm9.09-35.75a8.9,8.9,0,0,1-.38,1.52l0,.12A9.07,9.07,0,0,1,27.15,35c0,.09,0,.19-.1.26a10.67,10.67,0,0,1-.8,1.29c0,.09-.13.16-.18.25a10.92,10.92,0,0,1-2.2,2.2c-.1,0-.14.12-.24.17a9.11,9.11,0,0,1-1.31.79,1.14,1.14,0,0,1-.23.15c-.47.21-.94.4-1.41.56l-.1,0A12.35,12.35,0,0,1,19,41l-.19,0V32.27a.52.52,0,0,1,.52-.52h8.8Zm78.43,9a9,9,0,0,1-1.45-.37.59.59,0,0,1-.19-.08,6.08,6.08,0,0,1-1.31-.56,1.94,1.94,0,0,1-.24-.11,7.52,7.52,0,0,1-1.26-.8,1,1,0,0,1-.24-.19,10,10,0,0,1-1.17-1c-.38-.38-.7-.78-1-1.17a1.7,1.7,0,0,0-.14-.24c-.28-.42-.56-.84-.8-1.29a.62.62,0,0,1-.09-.26,7.64,7.64,0,0,1-.56-1.36l0-.11a8.87,8.87,0,0,1-.33-1.53l0-.16h8.57a.51.51,0,0,1,.51.52V41s-.09,0-.18,0"/><path class="cls-2" d="M91.61,47.26a7.12,7.12,0,0,0-7.12,7.1,6.77,6.77,0,0,0,1.26,3.93h5.86a3.94,3.94,0,1,1,3.94-3.93,3.94,3.94,0,0,1-3.94,3.93h5.86a6.7,6.7,0,0,0,1.26-3.93,7.11,7.11,0,0,0-7.12-7.1"/></g></g></svg>