<?xml version="1.0" encoding="UTF-8" standalone="no"?>
<!-- Generator: Adobe Illustrator 25.4.1, SVG Export Plug-In . SVG Version: 6.00 Build 0)  -->

<svg
   xmlns:dc="http://purl.org/dc/elements/1.1/"
   xmlns:cc="http://creativecommons.org/ns#"
   xmlns:rdf="http://www.w3.org/1999/02/22-rdf-syntax-ns#"
   xmlns:svg="http://www.w3.org/2000/svg"
   xmlns="http://www.w3.org/2000/svg"
   xmlns:sodipodi="http://sodipodi.sourceforge.net/DTD/sodipodi-0.dtd"
   xmlns:inkscape="http://www.inkscape.org/namespaces/inkscape"
   version="1.1"
   x="0px"
   y="0px"
   viewBox="0 0 101 123"
   enable-background="new 0 0 327.7 327.7"
   xml:space="preserve"
   id="svg56"
   sodipodi:docname="profile.svg"
   width="101"
   height="123"
   inkscape:version="0.92.5 (2060ec1f9f, 2020-04-08)"><metadata
   id="metadata62"><rdf:RDF><cc:Work
       rdf:about=""><dc:format>image/svg+xml</dc:format><dc:type
         rdf:resource="http://purl.org/dc/dcmitype/StillImage" /></cc:Work></rdf:RDF></metadata><defs
   id="defs60" /><sodipodi:namedview
   pagecolor="#ffffff"
   bordercolor="#666666"
   borderopacity="1"
   objecttolerance="10"
   gridtolerance="10"
   guidetolerance="10"
   inkscape:pageopacity="0"
   inkscape:pageshadow="2"
   inkscape:window-width="870"
   inkscape:window-height="480"
   id="namedview58"
   showgrid="false"
   inkscape:zoom="0.72017086"
   inkscape:cx="50.250006"
   inkscape:cy="19.749994"
   inkscape:window-x="0"
   inkscape:window-y="0"
   inkscape:window-maximized="0"
   inkscape:current-layer="g53" />
<g
   id="Layer_3"
   transform="translate(-113.6,-60.6)">
</g>
<g
   id="Layer_1"
   transform="translate(-113.6,-60.6)">
	<g
   id="g53">
		<g
   id="g5">
			
		</g>
		
		<g
   id="g51">
			<g
   id="g21">
				<path
   d="m 192.2,99.4 c -12.4,-0.9 -46.3,-8.9 -46.3,-8.9 -2.1,3.6 -7.4,8.3 -11.6,11.3 -0.1,0.7 -0.3,1.3 -0.4,2 -0.2,1.4 -0.4,2.9 -0.4,4.4 0,1.1 0.1,2.1 0.2,3.2 0.2,1.8 0.6,3.5 1.1,5.2 3.7,12.2 15.4,21.1 29.3,21.1 13.8,0 25.6,-8.9 29.3,-21.1 0.5,-1.7 0.9,-3.4 1.1,-5.2 0.1,-1 0.2,-2.1 0.2,-3.2 0,-1.5 -0.2,-3 -0.4,-4.4 -0.2,-1.5 -0.6,-2.9 -1.1,-4.3 -0.3,0 -0.6,-0.1 -1,-0.1 z m 0.2,5.1 -2.8,10.1 c -0.1,0.5 -0.6,0.9 -1.2,0.9 h -16.8 c -0.6,0 -1.1,-0.4 -1.2,-1 l -1.2,-5.8 c -0.3,-0.4 -0.8,-0.8 -1.5,-1.1 -1,-0.4 -2.3,-0.6 -3.5,-0.6 -1.3,0 -2.6,0.2 -3.6,0.6 -0.8,0.3 -1.3,0.7 -1.6,1.1 l -1.2,5.8 c -0.1,0.6 -0.6,1 -1.2,1 h -16.8 c -0.5,0 -1,-0.4 -1.2,-0.9 l -2.8,-10.1 c -0.1,-0.4 0,-0.8 0.2,-1.1 0.2,-0.3 0.6,-0.5 1,-0.5 h 21.6 c 0.4,0 0.7,0.2 0.9,0.4 0.2,0.3 0.3,0.6 0.3,1 l -0.2,0.9 c 1.4,-0.5 2.9,-0.8 4.5,-0.8 1.5,0 3.1,0.2 4.4,0.8 l -0.2,-0.9 c -0.1,-0.4 0,-0.7 0.3,-1 0.2,-0.3 0.6,-0.4 0.9,-0.4 h 21.6 c 0.4,0 0.7,0.2 1,0.5 0.3,0.4 0.4,0.7 0.3,1.1 z"
   id="path19"
   inkscape:connector-curvature="0"
   style="fill:#ffffff" />
			</g>
			<g
   id="g25">
				<path
   d="m 157.2,105.4 h -18.6 l 2.2,7.7 h 14.9 l 1,-5 -0.1,-0.1 c 0.1,-0.1 0.1,-0.2 0.2,-0.4 z"
   id="path23"
   inkscape:connector-curvature="0"
   style="fill:#ffffff" />
			</g>
			<g
   id="g29">
				<path
   d="m 128.6,102.7 c -1.7,0.3 -3,1.7 -3,3.4 v 2.7 c 0,1.7 1.3,3.2 3.1,3.4 -0.2,-1.3 -0.3,-2.7 -0.3,-4.1 0,-1.2 0.1,-2.3 0.2,-3.5 0.1,-0.6 0,-1.2 0,-1.9 z"
   id="path27"
   inkscape:connector-curvature="0"
   style="fill:#009e9b" />
			</g>
			<g
   id="g33">
				<path
   d="m 172.6,113.1 h 14.9 l 2.2,-7.7 h -18.6 l 0.5,2.3 c 0.1,0.1 0.2,0.2 0.2,0.4 l -0.1,0.1 z"
   id="path31"
   inkscape:connector-curvature="0"
   style="fill:#ffffff" />
			</g>
			<g
   id="g37">
				<path
   d="m 202.7,108.8 v -2.7 c 0,-1.6 -1.1,-2.9 -2.7,-3.3 -0.1,0.5 -0.3,1 -0.4,1.5 0.2,1.3 0.3,2.6 0.3,3.9 0,1.4 -0.1,2.7 -0.3,4.1 1.7,-0.3 3.1,-1.7 3.1,-3.5 z"
   id="path35"
   inkscape:connector-curvature="0"
   style="fill:#009e9b" />
			</g>
			<g
   id="g41">
				<path
   d="m 113.6,168.7 v 14.9 h 101 v -14.9 c 0,-16.9 -14,-30.7 -31.2,-30.7 h -1.7 c 8.1,-4.5 14.3,-11.9 16.8,-20.8 h 0.5 c 4.8,0 8.7,-3.8 8.7,-8.4 v -2.7 c 0,-4 -3,-7.4 -6.9,-8.2 0.1,-1.2 0.2,-2.4 0.2,-3.7 v -0.4 c 0,-0.9 0,-1.8 -0.1,-2.8 v 0 c -0.5,-5.7 -2.5,-11 -5.6,-15.6 -1.6,-2.3 -3.5,-4.4 -5.6,-6.3 -5.6,-4.9 -11.8,-8.5 -26.2,-8.5 -16.1,0 -36,16 -36,33.5 0,0.2 0,0.5 0,0.7 0,1 0,2 0.1,3 -4.1,0.7 -7.2,4.1 -7.2,8.2 v 2.7 c 0,4.6 3.9,8.4 8.7,8.4 h 0.5 c 2.5,8.9 8.7,16.3 16.8,20.8 h -1.7 c -17.1,0.1 -31.1,13.8 -31.1,30.8 z M 200,102.8 c 1.5,0.4 2.7,1.7 2.7,3.3 v 2.7 c 0,1.7 -1.3,3.2 -3.1,3.4 0.2,-1.3 0.3,-2.7 0.3,-4.1 0,-1.3 -0.1,-2.6 -0.3,-3.9 0.1,-0.4 0.3,-0.9 0.4,-1.4 z m -74.4,6 v -2.7 c 0,-1.7 1.3,-3.1 3,-3.4 0,0.7 0,1.3 0.1,2 -0.1,1.1 -0.2,2.3 -0.2,3.5 0,1.4 0.1,2.7 0.3,4.1 -1.8,-0.3 -3.2,-1.7 -3.2,-3.5 z m 38.5,46.7 c -9.2,0 -16.6,-7.4 -16.6,-16.6 0,-0.1 0,-0.2 0,-0.3 0.7,0.3 1.3,0.7 2,1 4.4,1.9 9.4,3 14.5,3 5.2,0 10.1,-1.1 14.5,-3 0.7,-0.3 1.4,-0.6 2,-1 0,0.1 0,0.2 0,0.3 0.2,9.2 -7.2,16.6 -16.4,16.6 z m -29.3,-39 c -0.5,-1.7 -0.9,-3.4 -1.1,-5.2 -0.1,-1 -0.2,-2.1 -0.2,-3.2 0,-1.5 0.2,-3 0.4,-4.4 0.1,-0.7 0.3,-1.3 0.4,-2 4.2,-3 9.6,-7.6 11.6,-11.3 0,0 33.9,7.9 46.3,8.9 0.4,0 0.7,0 1,0 0.5,1.4 0.8,2.8 1.1,4.3 0.2,1.4 0.4,2.9 0.4,4.4 0,1.1 -0.1,2.1 -0.2,3.2 -0.2,1.8 -0.6,3.5 -1.1,5.2 -3.7,12.2 -15.4,21.1 -29.3,21.1 -13.8,0.1 -25.5,-8.9 -29.3,-21 z"
   id="path39"
   inkscape:connector-curvature="0"
   style="fill:#009e9b" />
			</g>
			<g
   id="g45">
				<path
   d="m 149.6,139.5 c 0.2,3.8 1.7,7.2 4.2,9.7 2.6,2.6 6.3,4.3 10.3,4.3 4,0 7.7,-1.6 10.3,-4.3 2.5,-2.5 4.1,-5.9 4.2,-9.7 -4.4,1.9 -9.4,3 -14.5,3 -5.1,0 -10.1,-1.1 -14.5,-3 z"
   id="path43"
   inkscape:connector-curvature="0"
   style="fill:#ffffff" />
			</g>
			<g
   id="g49">
				<path
   d="m 174.4,149.2 c -2.6,2.6 -6.3,4.3 -10.3,4.3 -4,0 -7.7,-1.6 -10.3,-4.3 -2.5,-2.5 -4.1,-5.9 -4.2,-9.7 -0.7,-0.3 -1.4,-0.6 -2,-1 0,0.1 0,0.2 0,0.3 0,9.2 7.4,16.6 16.6,16.6 9.2,0 16.6,-7.4 16.6,-16.6 0,-0.1 0,-0.2 0,-0.3 -0.7,0.3 -1.3,0.7 -2,1 -0.3,3.8 -1.9,7.2 -4.4,9.7 z"
   id="path47"
   inkscape:connector-curvature="0"
   style="fill:#79e6f2" />
			</g>
		</g>
	</g>
</g>
</svg>