<?xml version="1.0" encoding="UTF-8" standalone="no"?>
<!-- Created with Inkscape (http://www.inkscape.org/) -->

<svg
   xmlns:dc="http://purl.org/dc/elements/1.1/"
   xmlns:cc="http://creativecommons.org/ns#"
   xmlns:rdf="http://www.w3.org/1999/02/22-rdf-syntax-ns#"
   xmlns:svg="http://www.w3.org/2000/svg"
   xmlns="http://www.w3.org/2000/svg"
   xmlns:sodipodi="http://sodipodi.sourceforge.net/DTD/sodipodi-0.dtd"
   xmlns:inkscape="http://www.inkscape.org/namespaces/inkscape"
   width="17.885834mm"
   height="29.633333mm"
   viewBox="0 0 17.885834 29.633333"
   version="1.1"
   id="svg855"
   inkscape:version="0.92.5 (2060ec1f9f, 2020-04-08)"
   sodipodi:docname="question.svg">
  <defs
     id="defs849" />
  <sodipodi:namedview
     id="base"
     pagecolor="#ffffff"
     bordercolor="#666666"
     borderopacity="1.0"
     inkscape:pageopacity="0.0"
     inkscape:pageshadow="2"
     inkscape:zoom="0.35"
     inkscape:cx="-643.34286"
     inkscape:cy="-123.99998"
     inkscape:document-units="mm"
     inkscape:current-layer="layer1"
     showgrid="false"
     inkscape:window-width="1366"
     inkscape:window-height="724"
     inkscape:window-x="0"
     inkscape:window-y="0"
     inkscape:window-maximized="1" />
  <metadata
     id="metadata852">
    <rdf:RDF>
      <cc:Work
         rdf:about="">
        <dc:format>image/svg+xml</dc:format>
        <dc:type
           rdf:resource="http://purl.org/dc/dcmitype/StillImage" />
        <dc:title></dc:title>
      </cc:Work>
    </rdf:RDF>
  </metadata>
  <g
     inkscape:label="Camada 1"
     inkscape:groupmode="layer"
     id="layer1"
     transform="translate(-114.27732,-86.391672)">
    <g
       transform="matrix(0.26458333,0,0,0.26458333,79.88149,67.553339)"
       id="g21">
      <path
         style="fill:#009e9b"
         inkscape:connector-curvature="0"
         d="m 147,143 c 0,-17.5 9.1,-23.5 16.3,-28.3 5.1,-3.3 9.2,-6.1 9.2,-11.5 0,-5.6 -3.8,-8.9 -9.5,-8.9 -5.1,0 -9.6,3.3 -9.6,9.7 v 1.2 H 130 V 103 c 0,-19.4 14.3,-31.8 33.8,-31.8 19.6,0 33.8,12 33.8,31.8 0,16.8 -8.9,21.9 -16.6,26.3 -5.8,3.5 -10.9,6.4 -10.9,13.7 v 1.2 H 147 Z m -3.9,24.4 c 0,-9.1 6.8,-15.8 15.8,-15.8 9,0 15.8,6.8 15.8,15.8 0,9 -6.8,15.8 -15.8,15.8 -9,0 -15.8,-6.7 -15.8,-15.8 z"
         id="path19" />
    </g>
  </g>
</svg>
