<svg xmlns="http://www.w3.org/2000/svg" viewBox="0 0 135.58 135.58"><defs><style>.cls-1{fill:none;stroke:#a9b0d9;stroke-miterlimit:10;stroke-width:2px;}.cls-2{fill:#004d76;}.cls-3{fill:#009e9b;}.cls-4{fill:#00679c;}.cls-5{fill:#4f3d97;}</style></defs><g id="Layer_2" data-name="Layer 2"><g id="Layer_1-2" data-name="Layer 1"><rect class="cls-1" x="1" y="1" width="133.58" height="133.58" rx="17.36"/><path class="cls-2" d="M74,104h-4.5a1.59,1.59,0,0,0-1.58,1.59,1.57,1.57,0,0,0,1.58,1.53H74a1.54,1.54,0,0,0,1.56-1.53A1.56,1.56,0,0,0,74,104"/><path class="cls-2" d="M60.51,104H56a1.57,1.57,0,0,0-1.58,1.59A1.55,1.55,0,0,0,56,107.11h4.48a1.57,1.57,0,0,0,1.58-1.53A1.59,1.59,0,0,0,60.51,104"/><path class="cls-2" d="M33.55,104H29.07a1.58,1.58,0,0,0-1.59,1.59,1.56,1.56,0,0,0,1.59,1.53h4.48a1.58,1.58,0,0,0,1.59-1.53A1.59,1.59,0,0,0,33.55,104"/><path class="cls-2" d="M47.05,104h-4.5A1.59,1.59,0,0,0,41,105.58a1.58,1.58,0,0,0,1.59,1.53h4.5a1.56,1.56,0,0,0,1.57-1.53A1.58,1.58,0,0,0,47.05,104"/><path class="cls-2" d="M94.91,105.58a1.55,1.55,0,0,0,1.56,1.53H101a1.56,1.56,0,0,0,1.57-1.53A1.58,1.58,0,0,0,101,104h-4.5a1.57,1.57,0,0,0-1.56,1.59"/><path class="cls-2" d="M87.5,104H83a1.57,1.57,0,0,0-1.56,1.59A1.55,1.55,0,0,0,83,107.11H87.5a1.55,1.55,0,0,0,1.56-1.53A1.57,1.57,0,0,0,87.5,104"/><path class="cls-2" d="M42.55,69.42H47a1.58,1.58,0,0,0,1.59-1.58A1.61,1.61,0,0,0,47,66.25H42.55A1.63,1.63,0,0,0,41,67.84a1.59,1.59,0,0,0,1.59,1.58"/><path class="cls-2" d="M96.47,69.42H101a1.57,1.57,0,0,0,1.57-1.58A1.61,1.61,0,0,0,101,66.25h-4.5a1.6,1.6,0,0,0-1.56,1.59,1.57,1.57,0,0,0,1.56,1.58"/><path class="cls-2" d="M29.07,69.42h4.48a1.59,1.59,0,0,0,1.59-1.58,1.63,1.63,0,0,0-1.59-1.59H29.07a1.61,1.61,0,0,0-1.59,1.59,1.58,1.58,0,0,0,1.59,1.58"/><path class="cls-2" d="M60.51,66.25H56a1.6,1.6,0,0,0-1.58,1.59A1.56,1.56,0,0,0,56,69.42h4.48a1.58,1.58,0,0,0,1.58-1.58,1.62,1.62,0,0,0-1.58-1.59"/><path class="cls-2" d="M83,69.42H87.5a1.57,1.57,0,0,0,1.56-1.58,1.6,1.6,0,0,0-1.56-1.59H83a1.62,1.62,0,0,0-1.58,1.59A1.58,1.58,0,0,0,83,69.42"/><path class="cls-2" d="M74,66.25h-4.5a1.62,1.62,0,0,0-1.58,1.59,1.58,1.58,0,0,0,1.58,1.58H74a1.56,1.56,0,0,0,1.56-1.58A1.59,1.59,0,0,0,74,66.25"/><path class="cls-3" d="M98.36,81.18a5.51,5.51,0,1,0,5.5,5.5,5.51,5.51,0,0,0-5.5-5.5m0,7.88A2.37,2.37,0,0,1,96,86.68a2.36,2.36,0,0,1,4.71,0,2.37,2.37,0,0,1-2.36,2.38"/><path class="cls-4" d="M49.1,49a2.65,2.65,0,0,1-2.82-2.43,1.55,1.55,0,0,0-1.56-1.53,1.58,1.58,0,0,0-1.59,1.53A5.69,5.69,0,0,0,47.54,52v.84a1.6,1.6,0,0,0,1.56,1.59,1.62,1.62,0,0,0,1.59-1.59V52a5.66,5.66,0,0,0,4.38-5.37c0-3.35-2.33-5.55-6-5.55-1.91,0-2.82-.74-2.82-2.42a2.86,2.86,0,0,1,5.65,0,1.57,1.57,0,1,0,3.14,0,5.65,5.65,0,0,0-4.38-5.32v-.84A1.59,1.59,0,0,0,49.1,30.9a1.57,1.57,0,0,0-1.56,1.58v.84a5.67,5.67,0,0,0-4.41,5.32c0,3.36,2.36,5.6,6,5.6,1.92,0,2.83.74,2.83,2.37A2.64,2.64,0,0,1,49.1,49"/><path class="cls-4" d="M76.91,40.27a2.62,2.62,0,0,1-2.8-2.43,1.59,1.59,0,0,0-1.59-1.58A1.57,1.57,0,0,0,71,37.84a5.66,5.66,0,0,0,4.38,5.37v.84a1.58,1.58,0,0,0,3.15,0v-.84a5.67,5.67,0,0,0,4.39-5.37c0-3.4-2.34-5.55-6-5.55-1.92,0-2.8-.79-2.8-2.42a2.84,2.84,0,0,1,5.62,0,1.58,1.58,0,1,0,3.15,0,5.61,5.61,0,0,0-4.39-5.32v-.84a1.58,1.58,0,1,0-3.15,0v.84A5.6,5.6,0,0,0,71,29.87c0,3.36,2.33,5.55,6,5.55,1.91,0,2.82.79,2.82,2.42a2.63,2.63,0,0,1-2.82,2.43"/><path class="cls-5" d="M116.32,73.34h-2.43V56.83a1.83,1.83,0,0,0-.46-1.12,1.66,1.66,0,0,0-1.12-.46h-6.09v-11a1.57,1.57,0,0,0-1.56-1.58H93.05l-2.2,3.12h12.22v9.43H24a4.72,4.72,0,0,1,0-9.43h7l-.33-3.17v.05H24a7.88,7.88,0,0,0-7.86,7.88v59.7A7.84,7.84,0,0,0,24,118.12h82a7.86,7.86,0,0,0,7.86-7.84V100.07h2.43a3.55,3.55,0,0,0,3.55-3.55V76.89a3.55,3.55,0,0,0-3.55-3.55M110.72,104H110a1.57,1.57,0,0,0-1.56,1.59,1.55,1.55,0,0,0,1.56,1.53h.77v3.17A4.7,4.7,0,0,1,106,115H24a4.7,4.7,0,0,1-4.71-4.72v-3.17h.77a1.57,1.57,0,0,0,1.58-1.53A1.59,1.59,0,0,0,20.07,104H19.3V69.42h.77a1.58,1.58,0,0,0,1.58-1.58,1.62,1.62,0,0,0-1.58-1.59H19.3V56.78A7.56,7.56,0,0,0,24,58.42h86.71v7.83H110a1.6,1.6,0,0,0-1.56,1.59A1.57,1.57,0,0,0,110,69.42h.77v3.92H98.6a13.37,13.37,0,1,0,0,26.73h12.12Zm6-7.47a.45.45,0,0,1-.4.42H98.6a10.24,10.24,0,0,1,0-20.47h17.72a.45.45,0,0,1,.4.42Z"/><path class="cls-3" d="M35.74,55.25h4.83a15.25,15.25,0,1,1,17.09,0h4.83a18.1,18.1,0,0,0,3.92-6.39,17.85,17.85,0,0,0,10.5,3.4,18.39,18.39,0,0,0,13.94-6.44l2.2-3.12A18.39,18.39,0,1,0,59.64,27.59,18.16,18.16,0,0,0,49.1,24.27,18.39,18.39,0,0,0,30.7,42.65L31,45.82a18.16,18.16,0,0,0,4.71,9.43M76.91,18.58a15.26,15.26,0,0,1,0,30.51,15,15,0,0,1-9.66-3.5,20.85,20.85,0,0,0,.26-2.94,18.2,18.2,0,0,0-5.28-12.87,15.29,15.29,0,0,1,14.68-11.2"/></g></g></svg>